<svg width="1032" height="803" viewBox="0 0 1032 803" fill="none" xmlns="http://www.w3.org/2000/svg">
<rect x="9" y="116" width="973" height="625" rx="312.5" fill="#3F3D56"/>
<path d="M926.299 231.594H767.878C746.436 173.586 737.123 119.65 767.878 79.163C767.878 68.7672 769.927 58.4732 773.907 48.8687C777.888 39.2642 783.723 30.5373 791.078 23.1863C798.433 15.8354 807.166 10.0043 816.776 6.02595C826.386 2.04763 836.686 2.17619e-05 847.088 2.17619e-05H847.088C859.73 -0.00935122 872.19 3.00916 883.424 8.80266C894.659 14.5962 904.34 22.996 911.658 33.2983C924.176 50.8688 926.684 73.5187 919.506 93.86C906.713 130.114 914.524 179.583 926.299 231.594Z" fill="#2F2E41"/>
<path d="M1009.97 803C1005.38 803 1000.92 801.531 997.231 798.809C993.543 796.087 990.825 792.255 989.477 787.876L982.95 766.677C981.44 761.771 981.15 756.572 982.104 751.529L986.55 728.048H1017.73L1030.67 775.996C1031.52 779.172 1031.64 782.503 1031 785.73C1030.36 788.956 1028.99 791.993 1026.99 794.604C1024.98 797.215 1022.41 799.331 1019.46 800.787C1016.51 802.243 1013.26 803 1009.97 803V803Z" fill="#2F2E41"/>
<path d="M782.801 803C787.386 803 791.85 801.531 795.538 798.809C799.226 796.087 801.943 792.255 803.291 787.876L809.818 766.677C811.328 761.771 811.619 756.572 810.664 751.529L806.219 728.048H775.04L762.103 775.996C761.246 779.172 761.132 782.503 761.77 785.73C762.408 788.956 763.781 791.993 765.783 794.604C767.784 797.215 770.361 799.331 773.312 800.787C776.263 802.243 779.51 803 782.801 803V803Z" fill="#2F2E41"/>
<path d="M1020.26 730.574H985.707L835.712 445.924L808.04 730.574H777.569C761.936 551.325 723.901 380.584 777.569 316.231L903.126 328.022L1020.26 730.574Z" fill="#009EFF"/>
<path d="M842.875 123.798C866.145 123.798 885.008 104.945 885.008 81.6896C885.008 58.4339 866.145 39.5815 842.875 39.5815C819.605 39.5815 800.742 58.4339 800.742 81.6896C800.742 104.945 819.605 123.798 842.875 123.798Z" fill="#9F616A"/>
<path d="M902.283 243.806H808.747L792.736 169.695C823.799 160.524 831.204 139.194 824.758 110.744L875.318 107.375C878.183 130.293 883.426 151.661 915.765 155.379L902.283 243.806Z" fill="#9F616A"/>
<path d="M902.283 336.443C849.215 356.581 806.043 355.952 775.883 328.022C789.493 283.167 790.308 227.931 784.31 167.169L801.163 159.589L807.062 213.488L890.486 209.277L909.024 150.326L927.563 154.537C928.984 227.628 924.604 293.381 902.283 336.443Z" fill="#E6E6E6"/>
<path d="M951.158 427.396L961.066 459.579C961.868 462.186 962.048 464.945 961.589 467.634C961.13 470.323 960.047 472.867 958.425 475.061C956.803 477.256 954.689 479.039 952.252 480.268C949.815 481.497 947.124 482.137 944.395 482.137V482.137C941.951 482.137 939.535 481.624 937.303 480.631C935.07 479.638 933.071 478.187 931.436 476.373C929.8 474.559 928.564 472.422 927.808 470.099C927.052 467.777 926.793 465.322 927.047 462.894L930.934 425.712L914.923 299.388L926.72 243.805H956.213L951.158 427.396Z" fill="#9F616A"/>
<path d="M715.147 420.703L697.735 449.529C696.324 451.864 695.482 454.498 695.275 457.218C695.068 459.938 695.503 462.668 696.545 465.19C697.587 467.711 699.206 469.953 701.272 471.735C703.339 473.517 705.795 474.79 708.443 475.451C710.814 476.042 713.282 476.129 715.689 475.706C718.095 475.283 720.386 474.359 722.413 472.995C724.439 471.631 726.156 469.856 727.453 467.786C728.749 465.716 729.596 463.397 729.938 460.979L735.177 423.964L781.324 305.276L790.63 248.437L754.732 241.354L715.147 420.703Z" fill="#9F616A"/>
<path d="M977.28 250.543L921.664 249.701V152.852L930.227 154.1C939.316 155.425 947.695 159.765 954.017 166.424C960.338 173.083 964.236 181.673 965.083 190.813L977.28 250.543Z" fill="#E6E6E6"/>
<path d="M739.648 260.649L795.264 259.806V162.958L786.701 164.206C777.613 165.531 769.234 169.871 762.912 176.53C756.59 183.189 752.692 191.779 751.846 200.919L739.648 260.649Z" fill="#E6E6E6"/>
<path d="M881.637 61.4778C863.74 71.5984 829.344 76.2277 804.112 69.0572L795.686 25.2649H879.109L881.637 61.4778Z" fill="#2F2E41"/>
<path d="M274 607H0V800H274V607Z" fill="#E6E6E6"/>
<path d="M160 744H114V799H160V744Z" fill="#0087DA"/>
<path d="M556.304 587.799L563.608 568.333L631.779 529.401L678.038 519.669L556.304 587.799Z" fill="#0087DA"/>
<path d="M305.533 587.799L298.229 568.333L230.058 529.401L183.798 519.669L305.533 587.799Z" fill="#0087DA"/>
<path d="M561.174 592.664H300.663L278.751 490.47H583.086L561.174 592.664Z" fill="#0087DA"/>
<path opacity="0.1" d="M561.174 592.664H300.663L278.751 490.47H583.086L561.174 592.664Z" fill="black"/>
<path d="M562.391 586.581H299.446V802.318H562.391V586.581Z" fill="#009EFF"/>
<path d="M454.129 738.155H407.708V800.921H454.129V738.155Z" fill="#3F3D56"/>
<path d="M485.53 630.734H376.306V664.846H485.53V630.734Z" fill="white"/>
<path d="M191 650H82V680H191V650Z" fill="white"/>
<rect x="309.855" y="176" width="88" height="133" transform="rotate(40.7719 309.855 176)" fill="#E15FAD"/>
<rect width="88" height="133" transform="matrix(-0.757316 0.653049 0.653049 0.757316 551.644 176)" fill="#E15FAD"/>
<rect x="310" y="176" width="242" height="266" fill="#FF8AD0"/>
</svg>
