<svg width="1388" height="1171" viewBox="0 0 1388 1171" fill="none" xmlns="http://www.w3.org/2000/svg">
<g clip-path="url(#clip0)">
<rect width="1388" height="1171" fill="white"/>
<rect width="17" height="12" rx="6" transform="matrix(-1 0 0 1 56 773)" fill="#957DE7"/>
<ellipse cx="649.5" cy="1103.5" rx="570.5" ry="11.5" fill="#9FCAFF"/>
<g style="mix-blend-mode:overlay">
<path d="M999.5 251.5C1006.5 247.5 1029 225 1022.5 216C1022.5 214.167 1022 210.1 1020 208.5C1017.5 206.5 975.5 187 963.5 195.5C951.5 204 934.5 227.5 924 257.5C913.5 287.5 911.5 344.5 911 362.5C910.6 376.9 921.833 390.5 927.5 395.5C930.333 394.5 935.7 388.8 934.5 374C933 355.5 942.5 302.5 948.5 292.5C954.5 282.5 992.5 255.5 999.5 251.5Z" fill="white"/>
</g>
<rect x="152" y="333" width="759" height="556" rx="100" fill="#1E1C31"/>
<rect x="1016" y="482" width="169" height="175" rx="84.5" fill="#1E1C31"/>
<rect x="206" y="193" width="157" height="66" rx="33" fill="#9FCAFF"/>
<rect x="213" y="403" width="919" height="698" rx="121" fill="#9FCAFF"/>
<rect x="406" y="114" width="358" height="282" rx="50" fill="#1E1C31"/>
<rect x="293" y="676" width="891" height="428" rx="50" fill="#1E1C31"/>
<path d="M422 912H148V1105H422V912Z" fill="#FFCE85"/>
<path d="M303 1046H257V1101H303V1046Z" fill="#0087DA"/>
<path d="M699.304 889.799L706.608 870.333L774.779 831.401L821.038 821.669L699.304 889.799Z" fill="#0087DA"/>
<path d="M448.533 889.799L441.229 870.333L373.058 831.401L326.798 821.669L448.533 889.799Z" fill="#0087DA"/>
<path d="M705.5 888.5L442.5 889L421.751 792.47H726.086L705.5 888.5Z" fill="#0087DA"/>
<path d="M705.5 888.5L442.5 889L442.446 1104.32H705.391L705.5 888.5Z" fill="#009EFF"/>
<path d="M597.129 1040.16H550.708V1102.92H597.129V1040.16Z" fill="white"/>
<path d="M628.53 932.734H519.306V966.846H628.53V932.734Z" fill="white"/>
<path d="M334 952H225V982H334V952Z" fill="white"/>
<g opacity="0.15">
<rect x="463.992" y="519.118" width="87.819" height="133.21" transform="rotate(40.7719 463.992 519.118)" fill="#1E1C31"/>
<rect width="88" height="133" transform="matrix(-0.757316 0.653049 0.653049 0.757316 705.644 519)" fill="#1E1C31"/>
<rect x="464" y="519" width="242" height="266" fill="#1E1C31"/>
</g>
<rect x="452.992" y="478.118" width="87.819" height="133.21" transform="rotate(40.7719 452.992 478.118)" fill="#60DA9F"/>
<rect width="88" height="133" transform="matrix(-0.757316 0.653049 0.653049 0.757316 694.644 478)" fill="#60DA9F"/>
<rect x="453" y="478" width="242" height="266" fill="#60E0B2"/>
<g style="mix-blend-mode:overlay" opacity="0.1">
<path d="M542.12 1031L442 889.706L705 889L704.5 1031H542.12Z" fill="black"/>
</g>
<path d="M1014.77 420H899.17C883.524 361.89 876.728 307.859 899.17 267.302C899.17 256.888 900.665 246.576 903.57 236.954C906.475 227.333 910.733 218.591 916.1 211.227C921.468 203.863 927.84 198.022 934.853 194.037C941.865 190.051 949.382 188 956.973 188H956.973C966.198 187.991 975.29 191.014 983.488 196.818C991.686 202.622 998.751 211.036 1004.09 221.357C1013.23 238.958 1015.06 261.648 1009.82 282.025C1000.48 318.342 1006.18 367.897 1014.77 420Z" fill="#1A1932"/>
<path d="M1121.7 1104C1117.2 1104 1112.81 1102.22 1109.18 1098.91C1105.56 1095.61 1102.89 1090.95 1101.56 1085.64L1095.15 1059.9C1093.66 1053.94 1093.38 1047.63 1094.32 1041.51L1098.69 1013H1129.33L1142.05 1071.21C1142.89 1075.07 1143 1079.11 1142.37 1083.03C1141.75 1086.95 1140.4 1090.64 1138.43 1093.81C1136.46 1096.98 1133.93 1099.55 1131.03 1101.31C1128.13 1103.08 1124.94 1104 1121.7 1104V1104Z" fill="black"/>
<path d="M894.277 1104C898.875 1104 903.353 1102.22 907.051 1098.91C910.75 1095.61 913.476 1090.95 914.828 1085.64L921.374 1059.9C922.889 1053.94 923.18 1047.63 922.223 1041.51L917.765 1013H886.493L873.516 1071.21C872.657 1075.07 872.543 1079.11 873.183 1083.03C873.823 1086.95 875.2 1090.64 877.208 1093.81C879.215 1096.98 881.799 1099.55 884.759 1101.31C887.719 1103.08 890.976 1104 894.277 1104V1104Z" fill="black"/>
<path d="M1131.77 1016H1097.28L947.509 670.443L919.879 1016H889.453C873.844 798.396 835.866 591.122 889.453 513L1014.82 527.313L1131.77 1016Z" fill="#1B1A52"/>
<path d="M954.65 320.798C977.919 320.798 996.783 301.945 996.783 278.69C996.783 255.434 977.919 236.582 954.65 236.582C931.38 236.582 912.517 255.434 912.517 278.69C912.517 301.945 931.38 320.798 954.65 320.798Z" fill="#FFB9B9"/>
<mask id="mask0" mask-type="alpha" maskUnits="userSpaceOnUse" x="862" y="513" width="270" height="503">
<path d="M1132 1016H1097.5L947.734 670.443L920.104 1016H889.678C874.069 798.396 836.091 591.122 889.678 513L1015.05 527.313L1132 1016Z" fill="#5D5AE8"/>
</mask>
<g mask="url(#mask0)">
<path d="M898.5 1021L885.5 1018C853.333 884.167 791.6 607.1 802 569.5C815 522.5 849 494.5 865.5 485C882 475.5 923.5 485.5 939 485C951.4 484.6 1008.17 506.833 1035 518L1049.5 627C1061.67 676 1078.7 776.8 1049.5 788C1013 802 1001 763 965.5 671.5C930 580 908.5 646 878.5 616.5C848.5 587 908.5 515 902.5 507C896.5 499 891.5 507 878.5 515C865.5 523 860.5 609.5 857.5 627C854.5 644.5 902.5 681 908.5 712C913.3 736.8 903.833 928.333 898.5 1021Z" fill="#2B297D"/>
</g>
<path d="M1062.93 624.396L1072.84 656.579C1073.64 659.186 1073.82 661.945 1073.36 664.634C1072.91 667.323 1071.82 669.867 1070.2 672.061C1068.58 674.256 1066.46 676.039 1064.03 677.268C1061.59 678.497 1058.9 679.137 1056.17 679.137V679.137C1053.73 679.137 1051.31 678.624 1049.08 677.631C1046.85 676.638 1044.85 675.187 1043.21 673.373C1041.58 671.559 1040.34 669.422 1039.58 667.099C1038.83 664.777 1038.57 662.322 1038.82 659.894L1042.71 622.712L1026.7 496.388L1038.5 440.805H1067.99L1062.93 624.396Z" fill="#FFB9B9"/>
<path d="M826.922 617.703L809.51 646.529C808.099 648.864 807.257 651.498 807.05 654.218C806.843 656.938 807.278 659.668 808.32 662.19C809.361 664.711 810.981 666.953 813.047 668.735C815.114 670.517 817.57 671.79 820.218 672.451C822.589 673.042 825.057 673.129 827.464 672.706C829.87 672.283 832.161 671.359 834.188 669.995C836.214 668.631 837.931 666.856 839.227 664.786C840.524 662.716 841.371 660.397 841.713 657.979L846.952 620.964L893.099 502.276L902.405 445.437L866.507 438.354L826.922 617.703Z" fill="#FFB9B9"/>
<path d="M963.775 239.5C971.775 247.5 989.775 275.167 997.775 288H1001.27V268.5C995.942 258.833 983.375 238 975.775 232C966.275 224.5 942.275 223 930.775 225.5C919.275 228 902.775 257.5 899.275 268.5C895.775 279.5 904.775 323.5 908.275 306.5C911.775 289.5 931.275 250.5 963.775 239.5Z" fill="#1A1932"/>
<path d="M988.275 325C975.875 333 947.442 332.333 934.775 331L927.775 347C925.942 348.833 919.375 354.3 907.775 361.5C893.275 370.5 872.275 371.5 865.775 404.5C859.275 437.5 856.275 470 842.775 500.5C829.275 531 832.275 560 827.275 576C823.275 588.8 824.275 597.667 825.275 600.5C823.275 603.167 819.875 610.8 822.275 620C830.275 620 839.275 627.667 842.775 631.5C845.942 629.667 852.275 624.8 852.275 620C852.275 614 855.775 614 865.775 606C873.775 599.6 873.442 588 872.275 583C884.608 585.333 918.375 588.6 954.775 583C991.175 577.4 1012.27 562.333 1018.27 555.5C1022.94 564.167 1032.17 583.2 1031.77 590C1031.37 596.8 1033.94 603.5 1035.27 606C1034.27 608.5 1033.67 615.3 1039.27 622.5C1041.77 622 1057.77 626.5 1062.77 631.5C1067.27 629.5 1063.77 619 1067.77 611C1071.77 603 1067.77 596 1071.27 583C1074.77 570 1075.27 564 1071.27 543C1067.27 522 1078.27 519 1075.27 500.5C1072.27 482 1065.77 397 1056.77 368C1047.77 339 1016.27 349.5 1002.77 343C989.275 336.5 991.775 335 988.275 325Z" fill="#87FBD8"/>
<ellipse cx="969.5" cy="277" rx="5.5" ry="5" fill="black"/>
<ellipse cx="932.5" cy="280" rx="5.5" ry="5" fill="black"/>
<path d="M941 305C945.5 307.333 956.7 310.6 965.5 305" stroke="#D19292" stroke-width="3"/>
<g style="mix-blend-mode:overlay" opacity="0.3">
<path d="M453 744L695 478H453V744Z" fill="white"/>
</g>
<g style="mix-blend-mode:overlay" opacity="0.3">
<path d="M409.5 616L452.5 479L366 579L409.5 616Z" fill="white"/>
</g>
<mask id="mask1" mask-type="alpha" maskUnits="userSpaceOnUse" x="807" y="188" width="336" height="916">
<path d="M1014.77 420H899.17C883.524 361.89 876.728 307.859 899.17 267.302C899.17 256.888 900.665 246.576 903.57 236.954C906.475 227.333 910.733 218.591 916.1 211.227C921.468 203.863 927.84 198.022 934.853 194.037C941.865 190.051 949.382 188 956.973 188H956.973C966.198 187.991 975.29 191.014 983.488 196.818C991.686 202.622 998.751 211.036 1004.09 221.357C1013.23 238.958 1015.06 261.648 1009.82 282.025C1000.48 318.342 1006.18 367.897 1014.77 420Z" fill="#2F2E41"/>
<path d="M1121.7 1104C1117.2 1104 1112.81 1102.22 1109.18 1098.91C1105.56 1095.61 1102.89 1090.95 1101.56 1085.64L1095.15 1059.9C1093.66 1053.94 1093.38 1047.63 1094.32 1041.51L1098.69 1013H1129.33L1142.05 1071.21C1142.89 1075.07 1143 1079.11 1142.37 1083.03C1141.75 1086.95 1140.4 1090.64 1138.43 1093.81C1136.46 1096.98 1133.93 1099.55 1131.03 1101.31C1128.13 1103.08 1124.94 1104 1121.7 1104V1104Z" fill="black"/>
<path d="M894.277 1104C898.875 1104 903.353 1102.22 907.051 1098.91C910.75 1095.61 913.476 1090.95 914.828 1085.64L921.374 1059.9C922.889 1053.94 923.18 1047.63 922.223 1041.51L917.765 1013H886.493L873.516 1071.21C872.657 1075.07 872.543 1079.11 873.183 1083.03C873.823 1086.95 875.2 1090.64 877.208 1093.81C879.215 1096.98 881.799 1099.55 884.759 1101.31C887.719 1103.08 890.976 1104 894.277 1104V1104Z" fill="black"/>
<path d="M1131.77 1016H1097.28L947.509 670.443L919.879 1016H889.453C873.844 798.396 835.866 591.122 889.453 513L1014.82 527.313L1131.77 1016Z" fill="#1B1A52"/>
<path d="M954.65 320.798C977.919 320.798 996.783 301.945 996.783 278.69C996.783 255.434 977.919 236.582 954.65 236.582C931.38 236.582 912.517 255.434 912.517 278.69C912.517 301.945 931.38 320.798 954.65 320.798Z" fill="#FFB9B9"/>
<path d="M1062.93 624.396L1072.84 656.579C1073.64 659.186 1073.82 661.945 1073.36 664.634C1072.91 667.323 1071.82 669.867 1070.2 672.061C1068.58 674.256 1066.46 676.039 1064.03 677.268C1061.59 678.497 1058.9 679.137 1056.17 679.137V679.137C1053.73 679.137 1051.31 678.624 1049.08 677.631C1046.85 676.638 1044.85 675.187 1043.21 673.373C1041.58 671.559 1040.34 669.422 1039.58 667.099C1038.83 664.777 1038.57 662.322 1038.82 659.894L1042.71 622.712L1026.7 496.388L1038.5 440.805H1067.99L1062.93 624.396Z" fill="#FFB9B9"/>
<path d="M826.922 617.703L809.51 646.529C808.099 648.864 807.257 651.498 807.05 654.218C806.843 656.938 807.278 659.668 808.32 662.19C809.361 664.711 810.981 666.953 813.047 668.735C815.114 670.517 817.57 671.79 820.218 672.451C822.589 673.042 825.057 673.129 827.464 672.706C829.87 672.283 832.161 671.359 834.188 669.995C836.214 668.631 837.931 666.856 839.227 664.786C840.524 662.716 841.371 660.397 841.713 657.979L846.952 620.964L893.099 502.276L902.405 445.437L866.507 438.354L826.922 617.703Z" fill="#FFB9B9"/>
<path d="M963.775 239.5C971.775 247.5 989.775 275.167 997.775 288H1001.27V268.5C995.942 258.833 983.375 238 975.775 232C966.275 224.5 942.275 223 930.775 225.5C919.275 228 902.775 257.5 899.275 268.5C895.775 279.5 904.775 323.5 908.275 306.5C911.775 289.5 931.275 250.5 963.775 239.5Z" fill="#2F2E41"/>
<path d="M988.275 325C975.875 333 947.442 332.333 934.775 331L927.775 347C925.942 348.833 919.375 354.3 907.775 361.5C893.275 370.5 872.275 371.5 865.775 404.5C859.275 437.5 856.275 470 842.775 500.5C829.275 531 832.275 560 827.275 576C823.275 588.8 824.275 597.667 825.275 600.5C823.275 603.167 819.875 610.8 822.275 620C830.275 620 839.275 627.667 842.775 631.5C845.942 629.667 852.275 624.8 852.275 620C852.275 614 855.775 614 865.775 606C873.775 599.6 873.442 588 872.275 583C884.608 585.333 918.375 588.6 954.775 583C991.175 577.4 1012.27 562.333 1018.27 555.5C1022.94 564.167 1032.17 583.2 1031.77 590C1031.37 596.8 1033.94 603.5 1035.27 606C1034.27 608.5 1033.67 615.3 1039.27 622.5C1041.77 622 1057.77 626.5 1062.77 631.5C1067.27 629.5 1063.77 619 1067.77 611C1071.77 603 1067.77 596 1071.27 583C1074.77 570 1075.27 564 1071.27 543C1067.27 522 1078.27 519 1075.27 500.5C1072.27 482 1065.77 397 1056.77 368C1047.77 339 1016.27 349.5 1002.77 343C989.275 336.5 991.775 335 988.275 325Z" fill="#87AEFB"/>
</mask>
<g mask="url(#mask1)">
<path d="M944 204C947 192 941 189 927.5 196L926.5 195.5L910 202C905.5 207 896.4 221.8 896 241C895.5 265 915 243 919 239.5C923 236 941 216 944 204Z" fill="#2D2B60"/>
<g style="mix-blend-mode:overlay" opacity="0.3">
<path d="M859.5 510.5C864.5 491.5 861.5 422.5 878 379.5C868.167 387.5 846.6 410 839 436C829.5 468.5 818.5 524 818.5 553.5V620C821.5 619.667 827.9 616.9 829.5 608.5C831.5 598 838.5 583 839 573.5C839.5 564 854.5 529.5 859.5 510.5Z" fill="white"/>
</g>
<g style="mix-blend-mode:overlay" opacity="0.3">
<path d="M1050 411C1048 384.5 1050 347.111 1013 346L1029 339.5C1046.83 344.667 1083.8 359.6 1089 378C1095.5 401 1104 495.5 1102 530.5C1100 565.5 1081.5 621 1078 626.5C1075.2 630.9 1067.5 632 1064 632L1054 626.5C1053.67 621.167 1052.4 610 1050 608C1047 605.5 1043.5 592.5 1041 583C1038.5 573.5 1043.5 580 1047.5 563.5C1051.5 547 1036.5 541.5 1035 501C1033.5 460.5 1052 437.5 1050 411Z" fill="white"/>
</g>
</g>
<rect x="512.672" y="209.269" width="121.745" height="49.4132" rx="17" transform="rotate(46.2125 512.672 209.269)" fill="#6EB923"/>
<rect x="706.122" y="186.94" width="202.489" height="49.4132" rx="17" transform="rotate(135 706.122 186.94)" fill="#6EB923"/>
<rect x="500.672" y="197.269" width="121.745" height="49.4132" rx="17" transform="rotate(46.2125 500.672 197.269)" fill="#86E726"/>
<rect x="694.122" y="174.94" width="202.489" height="49.4132" rx="17" transform="rotate(135 694.122 174.94)" fill="#86E726"/>
<rect x="1174" y="493" width="63" height="20" rx="10" fill="#60E0B2"/>
<rect x="1237" y="614" width="105" height="43" rx="21.5" fill="#60E0B2"/>
<rect width="59" height="27" rx="13.5" transform="matrix(-1 0 0 1 884 57)" fill="#957DE7"/>
<rect width="17" height="12" rx="6" transform="matrix(-1 0 0 1 1024 102)" fill="#957DE7"/>
<mask id="mask2" mask-type="alpha" maskUnits="userSpaceOnUse" x="822" y="325" width="255" height="307">
<path d="M988.825 325C976.425 333 947.992 332.333 935.325 331L928.325 347C926.492 348.833 919.925 354.3 908.325 361.5C893.825 370.5 872.825 371.5 866.325 404.5C859.825 437.5 856.825 470 843.325 500.5C829.825 531 832.825 560 827.825 576C823.825 588.8 824.825 597.667 825.825 600.5C823.825 603.167 820.425 610.8 822.825 620C830.825 620 839.825 627.667 843.325 631.5C846.492 629.667 852.825 624.8 852.825 620C852.825 614 856.325 614 866.325 606C874.325 599.6 873.992 588 872.825 583C885.159 585.333 918.925 588.6 955.325 583C991.725 577.4 1012.83 562.333 1018.83 555.5C1023.49 564.167 1032.73 583.2 1032.33 590C1031.93 596.8 1034.49 603.5 1035.83 606C1034.83 608.5 1034.23 615.3 1039.83 622.5C1042.33 622 1058.33 626.5 1063.33 631.5C1067.83 629.5 1064.33 619 1068.33 611C1072.33 603 1068.33 596 1071.83 583C1075.33 570 1075.83 564 1071.83 543C1067.83 522 1078.83 519 1075.83 500.5C1072.83 482 1066.33 397 1057.33 368C1048.33 339 1016.83 349.5 1003.33 343C989.825 336.5 992.325 335 988.825 325Z" fill="#87AEFB"/>
</mask>
<g mask="url(#mask2)">
<path d="M832.5 623C830.9 621.4 819.167 620.667 813.5 620.5C816.333 587.833 823.4 517.1 829 495.5C836 468.5 856.5 382.5 862 370C867.5 357.5 895.5 355 902.5 363C909.5 371 900.5 428 951.5 436.5C1002.5 445 989.5 391 1004.5 343C1019.5 295 1011 341.5 1027.5 341C1044 340.5 1052.5 347 1061 350C1069.5 353 1089.5 438 1090 460C1090.5 482 1080.5 527 1073.5 548.5C1066.5 570 1066.5 551 1065.5 563C1064.5 575 1064 585.5 1061 593.5C1058 601.5 1052.5 598 1047 596C1041.5 594 1031.5 581 1030.5 563C1029.5 545 1029.5 549 1027.5 540.5C1025.5 532 1026 522 1022 504.5C1018.8 490.5 1017.67 500.667 1017.5 507.5C1020.5 515.167 1024.7 533.4 1017.5 545C1008.5 559.5 1005.5 551 984.5 570C963.5 589 893.5 583 891.5 581C889.5 579 883.5 563.5 880.5 561C877.5 558.5 883.5 529.5 883.5 511V489.5C881.833 494.333 877.8 506.5 875 516.5C871.5 529 876.5 541.5 862 557.5C847.5 573.5 856.5 566.5 856.5 590C856.5 613.5 834.5 625 832.5 623Z" fill="#A9FFE5"/>
</g>
</g>
<defs>
<clipPath id="clip0">
<rect width="1388" height="1171" fill="white"/>
</clipPath>
</defs>
</svg>
