<svg width="1193" height="728" viewBox="0 0 1193 728" fill="none" xmlns="http://www.w3.org/2000/svg">
<rect x="58" width="973" height="592" rx="296" fill="#0087DA" fill-opacity="0.3"/>
<g clip-path="url(#clip0)">
<path d="M354.921 635.269C350.819 667.402 335.738 696.802 319.649 725.122C319.117 726.086 318.569 727.036 318.009 728H150.787C147.405 727.122 144.066 726.158 140.742 725.122C121.855 719.372 104.024 710.6 87.9422 699.147C26.4213 654.825 2.74814 571.074 13.4408 496.028C20.0895 449.404 40.5529 401.801 80.4011 376.689C101.441 363.407 128.466 359.09 152.686 364.026C153.32 364.141 153.953 364.285 154.6 364.415C175.438 369.106 194.002 380.762 204.566 399.541C223.561 433.287 212.25 475.09 202.911 512.649C193.6 550.208 188.548 595.163 215.574 622.864C206.652 596.602 215.459 565.274 236.772 547.517C252.875 534.119 275.296 529.097 295.746 533.256C297.703 533.673 299.632 534.148 301.531 534.724C306.122 536.068 310.548 537.922 314.727 540.25C346.603 558.05 359.512 599.048 354.921 635.269Z" fill="#F2F2F2"/>
<path d="M255.768 725.122C260.402 726.201 265.05 727.151 269.727 728H244.442C241.132 727.108 237.837 726.158 234.571 725.122C227.389 722.877 220.318 720.301 213.358 717.394C185.44 705.681 159.724 688.096 140.267 664.697C130.752 653.361 122.981 640.668 117.213 627.038C110.958 611.632 106.983 595.397 105.413 578.844C101.887 544.883 105.485 509.987 112.205 476.63C119.14 442.058 130.336 408.478 145.534 376.661C147.362 372.847 149.252 369.058 151.204 365.292C151.339 364.982 151.542 364.707 151.799 364.488C152.056 364.268 152.359 364.11 152.686 364.026C153.351 363.897 154.039 364.037 154.6 364.415C155.274 364.801 155.774 365.432 155.996 366.176C156.219 366.921 156.147 367.722 155.795 368.415C140.124 398.974 128.245 431.333 120.422 464.773C112.766 497.395 108.42 531.529 109.902 565.073C111.313 596.415 119.502 627.239 138.08 652.868C155.046 676.267 178.475 694.715 204.393 707.278C220.797 715.126 238.03 721.112 255.768 725.122V725.122Z" fill="white"/>
<path d="M311.259 728H303.805C302.97 727.05 302.164 726.086 301.373 725.122C284.393 704.492 272.89 679.913 267.928 653.66C261.902 620.896 266.59 587.063 281.297 557.173C285.4 548.791 290.235 540.788 295.745 533.256C297.702 533.673 299.631 534.148 301.531 534.724C287.037 553.926 277.288 576.283 273.08 599.969C269.326 622.165 270.574 644.919 276.733 666.57C282.893 688.222 293.808 708.226 308.683 725.122C309.517 726.086 310.381 727.05 311.259 728Z" fill="white"/>
<path d="M982.792 703.527C983.875 712.007 987.855 719.766 992.101 727.24C992.242 727.495 992.386 727.746 992.534 728H1036.67C1037.56 727.768 1038.44 727.514 1039.32 727.24C1044.3 725.723 1049.01 723.408 1053.25 720.385C1069.49 708.688 1075.74 686.584 1072.91 666.778C1071.16 654.473 1065.76 641.91 1055.24 635.283C1049.53 631.805 1042.72 630.611 1036.17 631.941C1036 631.971 1035.83 632.009 1035.66 632.043C1032.93 632.57 1030.35 633.669 1028.07 635.267C1025.8 636.865 1023.89 638.926 1022.47 641.314C1017.46 650.22 1020.45 661.253 1022.91 671.165C1025.37 681.077 1026.7 692.942 1019.57 700.253C1020.61 697.195 1020.83 693.915 1020.18 690.748C1019.54 687.581 1018.07 684.643 1015.91 682.235C1013.76 679.827 1011 678.036 1007.92 677.046C1004.85 676.056 1001.56 675.904 998.41 676.604C997.893 676.714 997.384 676.839 996.883 676.991C995.671 677.346 994.503 677.835 993.4 678.449C984.988 683.147 981.581 693.967 982.792 703.527Z" fill="#F2F2F2"/>
<path d="M1008.96 727.24C1007.74 727.525 1006.51 727.776 1005.28 728H1011.95C1012.82 727.765 1013.69 727.514 1014.55 727.24C1016.45 726.648 1018.32 725.968 1020.15 725.201C1027.6 722.176 1034.22 717.406 1039.44 711.293C1041.95 708.301 1044.01 704.951 1045.53 701.354C1047.18 697.288 1048.23 693.004 1048.64 688.635C1049.4 679.604 1048.8 670.51 1046.85 661.659C1045.02 652.535 1042.06 643.672 1038.05 635.275C1037.57 634.269 1037.07 633.269 1036.56 632.275C1036.52 632.193 1036.47 632.12 1036.4 632.063C1036.33 632.005 1036.25 631.963 1036.17 631.941C1035.99 631.907 1035.81 631.944 1035.66 632.043C1035.48 632.145 1035.35 632.312 1035.29 632.508C1035.23 632.705 1035.25 632.916 1035.35 633.099C1039.48 641.164 1042.62 649.704 1044.68 658.53C1046.81 667.186 1047.74 676.092 1047.46 685.001C1047.31 693.287 1044.72 701.345 1040.02 708.171C1035.45 714.319 1029.44 719.251 1022.52 722.531C1018.19 724.603 1013.64 726.182 1008.96 727.24Z" fill="white"/>
<path d="M994.315 728H996.283C996.503 727.749 996.716 727.495 996.925 727.24C1001.41 721.796 1004.44 715.309 1005.75 708.38C1007.34 699.733 1006.1 690.804 1002.22 682.916C1001.14 680.703 999.864 678.591 998.41 676.604C997.893 676.714 997.384 676.839 996.883 676.991C1000.71 682.059 1003.28 687.959 1004.39 694.21C1005.38 700.068 1005.05 706.073 1003.43 711.788C1001.8 717.502 998.921 722.781 994.995 727.24C994.775 727.495 994.547 727.749 994.315 728Z" fill="white"/>
<path d="M585.001 508.806H446.877L445.412 466.339C445.349 464.498 445.685 462.665 446.398 460.967C447.111 459.268 448.184 457.744 449.542 456.5C450.9 455.256 452.512 454.321 454.266 453.759C456.02 453.197 457.875 453.022 459.704 453.246L540.083 463.088H540.093C552.009 463.12 563.427 467.874 571.845 476.309C580.263 484.743 584.994 496.17 585.001 508.086V508.806Z" fill="#0087DA"/>
<path d="M523.439 358.169H427.104C425.822 358.169 424.554 358.421 423.37 358.911C422.186 359.401 421.111 360.12 420.205 361.026C419.299 361.932 418.58 363.007 418.09 364.191C417.6 365.374 417.348 366.643 417.348 367.924V464.256C417.348 465.537 417.6 466.806 418.09 467.99C418.58 469.173 419.299 470.249 420.205 471.155C421.111 472.061 422.186 472.779 423.37 473.269C424.554 473.759 425.822 474.011 427.104 474.011H523.439C524.72 474.011 525.989 473.759 527.173 473.269C528.356 472.779 529.432 472.061 530.338 471.155C531.244 470.249 531.962 469.173 532.452 467.99C532.943 466.806 533.195 465.537 533.194 464.256V367.924C533.195 366.643 532.943 365.374 532.452 364.191C531.962 363.007 531.244 361.932 530.338 361.026C529.432 360.12 528.356 359.401 527.173 358.911C525.989 358.421 524.72 358.169 523.439 358.169V358.169Z" fill="#CCCCCC"/>
<path d="M501.743 430.202L456.259 439.06C453.561 439.582 450.766 439.012 448.487 437.477C446.208 435.941 444.632 433.564 444.103 430.867L440.607 412.913C440.085 410.216 440.654 407.421 442.19 405.142C443.726 402.863 446.103 401.287 448.8 400.759L494.284 391.901C496.982 391.379 499.777 391.948 502.056 393.484C504.335 395.02 505.911 397.397 506.439 400.094L509.936 418.048C510.458 420.745 509.889 423.54 508.353 425.819C506.817 428.098 504.44 429.674 501.743 430.202Z" fill="#3F3D56"/>
<path d="M492.643 408.992L457.931 415.751C457.296 415.875 456.638 415.741 456.102 415.38C455.566 415.018 455.195 414.459 455.071 413.824C454.948 413.189 455.081 412.531 455.443 411.994C455.804 411.458 456.364 411.087 456.999 410.964L491.71 404.204C492.345 404.081 493.003 404.214 493.54 404.576C494.076 404.937 494.447 405.497 494.57 406.132C494.694 406.767 494.561 407.425 494.199 407.961C493.838 408.498 493.278 408.868 492.643 408.992V408.992Z" fill="white"/>
<path d="M485.896 419.002L467.942 422.498C467.307 422.622 466.649 422.488 466.112 422.127C465.576 421.765 465.205 421.205 465.081 420.57C464.958 419.936 465.091 419.278 465.453 418.741C465.815 418.205 466.374 417.834 467.009 417.71L484.963 414.214C485.278 414.153 485.601 414.154 485.915 414.218C486.229 414.282 486.527 414.407 486.793 414.586C487.058 414.765 487.286 414.994 487.463 415.261C487.64 415.528 487.762 415.828 487.824 416.142C487.885 416.456 487.883 416.78 487.82 417.093C487.756 417.407 487.631 417.706 487.452 417.971C487.273 418.237 487.043 418.464 486.776 418.641C486.509 418.818 486.21 418.941 485.896 419.002Z" fill="white"/>
<path d="M533.194 367.924V380.728H417.348V367.924C417.348 366.643 417.6 365.374 418.09 364.191C418.58 363.007 419.299 361.932 420.205 361.026C421.111 360.12 422.186 359.401 423.37 358.911C424.554 358.421 425.822 358.169 427.104 358.169H523.439C524.72 358.169 525.989 358.421 527.173 358.911C528.356 359.401 529.432 360.12 530.338 361.026C531.244 361.932 531.962 363.007 532.453 364.191C532.943 365.374 533.195 366.643 533.194 367.924Z" fill="#B3B3B3"/>
<path d="M764.528 384.737C763.859 382.579 762.725 380.593 761.206 378.92C759.687 377.246 757.819 375.927 755.734 375.054C753.65 374.18 751.399 373.775 749.141 373.865C746.883 373.956 744.672 374.541 742.664 375.578L610.129 328.029L604.292 361.137L736.404 397.466C738.371 400.723 741.464 403.146 745.098 404.275C748.732 405.405 752.653 405.162 756.12 403.593C759.587 402.024 762.357 399.238 763.907 395.763C765.457 392.287 765.678 388.365 764.528 384.737V384.737Z" fill="#FFB8B8"/>
<path opacity="0.2" d="M764.528 384.737C763.859 382.579 762.725 380.593 761.206 378.92C759.687 377.246 757.819 375.927 755.734 375.054C753.65 374.18 751.399 373.775 749.141 373.865C746.883 373.956 744.672 374.541 742.664 375.578L610.129 328.029L604.292 361.137L736.404 397.466C738.371 400.723 741.464 403.146 745.098 404.275C748.732 405.405 752.653 405.162 756.12 403.593C759.587 402.024 762.357 399.238 763.907 395.763C765.457 392.287 765.678 388.365 764.528 384.737V384.737Z" fill="black"/>
<path d="M633.653 334.062L621.138 366.757C620.782 367.687 620.229 368.53 619.518 369.227C618.807 369.925 617.954 370.461 617.017 370.799C616.08 371.137 615.081 371.269 614.089 371.186C613.096 371.104 612.133 370.808 611.265 370.32L580.848 353.2C576.099 351.351 572.277 347.695 570.22 343.032C568.163 338.37 568.039 333.082 569.874 328.328C571.71 323.574 575.356 319.742 580.013 317.672C584.67 315.601 589.958 315.462 594.717 317.284L628.682 324.817C629.655 325.033 630.569 325.456 631.364 326.057C632.158 326.659 632.813 327.424 633.285 328.301C633.756 329.179 634.034 330.147 634.097 331.141C634.161 332.135 634.009 333.131 633.653 334.062V334.062Z" fill="#FF9F46"/>
<path d="M774.96 415.011L727.471 436.596L733.706 460.068C745.746 505.394 748.941 552.616 743.117 599.15V599.15L777.839 606.402L806.62 533.011L796.547 449.548L774.96 415.011Z" fill="#0087DA"/>
<path d="M868.141 523.658C836.939 523.658 811.511 546.34 810.277 574.743H926.005C924.771 546.34 899.343 523.658 868.141 523.658Z" fill="#3F3D56"/>
<path d="M843.851 528.553C842.228 400.337 769.204 412.133 769.204 412.133C769.204 412.133 770.57 452.042 771.226 453.283C817.76 541.322 740.962 644.536 643.205 625.548C641.362 625.19 639.592 624.827 637.893 624.458C625.507 621.872 614.571 614.665 607.309 604.303C600.047 593.941 597.006 581.202 598.803 568.677C608.433 491.35 560.537 492.719 560.537 492.719H490.502L454.131 459.987C452.848 458.831 451.3 458.008 449.625 457.589C447.949 457.17 446.196 457.167 444.52 457.582C442.843 457.997 441.294 458.816 440.007 459.968C438.72 461.12 437.735 462.569 437.138 464.19L432.459 476.889C432.459 476.889 363.383 484.084 369.139 551.719H390.495C390.443 553.641 390.52 555.564 390.725 557.475L550.105 556.179C559.447 556.103 567.694 563.673 567.732 573.015C567.742 575.29 567.293 577.543 566.411 579.64C565.53 581.736 564.235 583.634 562.603 585.219C560.972 586.803 559.037 588.043 556.916 588.863C554.794 589.682 552.529 590.066 550.255 589.99L524.56 589.134C516.645 624.39 536.073 648.134 557.479 663.064C577.633 676.917 601.549 684.262 626.005 684.11H695.811C786.473 684.11 802.303 607.841 802.303 607.841C849.793 587.695 843.851 528.553 843.851 528.553Z" fill="#3A5AFF"/>
<path d="M863.824 725.841C908.53 725.841 944.772 689.601 944.772 644.896C944.772 600.191 908.53 563.951 863.824 563.951C819.117 563.951 782.875 600.191 782.875 644.896C782.875 689.601 819.117 725.841 863.824 725.841Z" fill="#3F3D56"/>
<path d="M863.824 664.736C874.781 664.736 883.664 655.853 883.664 644.896C883.664 633.939 874.781 625.056 863.824 625.056C852.866 625.056 843.983 633.939 843.983 644.896C843.983 655.853 852.866 664.736 863.824 664.736Z" fill="white"/>
<path d="M455.124 725.841C506.586 725.841 548.305 684.125 548.305 632.664C548.305 581.204 506.586 539.487 455.124 539.487C403.662 539.487 361.943 581.204 361.943 632.664C361.943 684.125 403.662 725.841 455.124 725.841Z" fill="#3F3D56"/>
<path d="M455.124 655.502C467.737 655.502 477.963 645.277 477.963 632.664C477.963 620.051 467.737 609.827 455.124 609.827C442.511 609.827 432.286 620.051 432.286 632.664C432.286 645.277 442.511 655.502 455.124 655.502Z" fill="white"/>
<path d="M727.606 442.974L710.519 396.566C709.628 394.148 709.223 391.577 709.326 389.002C709.429 386.427 710.038 383.897 711.118 381.557C712.199 379.217 713.73 377.113 715.624 375.365C717.518 373.616 719.738 372.258 722.156 371.368L771.143 353.335C775.399 351.768 779.921 351.054 784.453 351.235C788.985 351.416 793.436 352.487 797.554 354.388C801.671 356.29 805.374 358.983 808.45 362.315C811.527 365.647 813.917 369.552 815.484 373.808C816.897 377.628 817.618 381.669 817.615 385.741C817.597 390.912 816.426 396.015 814.189 400.677C811.952 405.339 808.704 409.445 804.681 412.694C801.775 415.025 798.508 416.867 795.01 418.147L727.606 442.974Z" fill="#3F3D56"/>
<path d="M816.895 385.741C816.891 390.807 815.752 395.807 813.56 400.375C811.368 404.942 808.181 408.96 804.231 412.133C798.172 410.535 792.533 407.636 787.707 403.639C782.882 399.641 778.984 394.641 776.286 388.985C773.588 383.329 772.155 377.153 772.085 370.887C772.015 364.621 773.311 358.415 775.882 352.701C780.818 351.627 785.931 351.673 790.847 352.835C795.763 353.996 800.357 356.244 804.29 359.413C808.224 362.582 811.398 366.591 813.579 371.147C815.761 375.703 816.894 380.69 816.895 385.741V385.741Z" fill="#2EAFFF"/>
<path d="M381.371 561.072C392.498 561.072 401.518 550.12 401.518 536.609C401.518 523.098 392.498 512.145 381.371 512.145C370.244 512.145 361.224 523.098 361.224 536.609C361.224 550.12 370.244 561.072 381.371 561.072Z" fill="#0087DA"/>
<path d="M647.69 623.204H665.333L673.727 577.447L647.687 577.449L647.69 623.204Z" fill="#FFB8B8"/>
<path d="M643.189 617.444L677.934 617.443H677.935C680.843 617.443 683.723 618.015 686.409 619.128C689.095 620.241 691.536 621.872 693.593 623.928C695.649 625.984 697.28 628.424 698.392 631.111C699.505 633.797 700.078 636.676 700.078 639.584V640.304L643.19 640.306L643.189 617.444Z" fill="#2F2E41"/>
<path d="M668.168 604.424C667.963 604.424 667.756 604.414 667.549 604.394L643.133 602.617C642.145 602.525 641.192 602.208 640.347 601.69C639.501 601.171 638.786 600.466 638.257 599.628C637.727 598.789 637.397 597.841 637.292 596.855C637.187 595.868 637.31 594.871 637.651 593.94L670.328 520.529C670.561 519.874 670.656 519.179 670.608 518.485C670.559 517.792 670.368 517.117 670.045 516.501C669.723 515.878 669.274 515.331 668.725 514.894C668.177 514.458 667.542 514.142 666.863 513.969C651.498 509.953 612.074 499.258 577.947 486.745C563.326 481.384 554.118 473.637 550.578 463.718C545.911 450.642 552.815 438.716 553.111 438.216L553.343 437.824L585.456 440.743L620.269 443.704L696.559 484.612C702.952 488.069 707.808 493.807 710.159 500.683C712.511 507.559 712.187 515.069 709.25 521.716L674.077 600.586C673.569 601.728 672.74 602.699 671.691 603.38C670.642 604.061 669.419 604.424 668.168 604.424Z" fill="#2F2E41"/>
<path d="M591.039 295.503C610.56 295.503 626.385 279.679 626.385 260.159C626.385 240.639 610.56 224.815 591.039 224.815C571.518 224.815 555.694 240.639 555.694 260.159C555.694 279.679 571.518 295.503 591.039 295.503Z" fill="#FFB8B8"/>
<path d="M637.616 627.521H655.259L663.653 581.764L637.613 581.766L637.616 627.521Z" fill="#FFB8B8"/>
<path d="M633.115 621.761L667.86 621.76H667.862C670.77 621.76 673.649 622.332 676.335 623.445C679.022 624.558 681.463 626.189 683.519 628.245C685.575 630.301 687.206 632.742 688.319 635.428C689.432 638.114 690.004 640.993 690.004 643.901V644.621L633.117 644.623L633.115 621.761Z" fill="#2F2E41"/>
<path d="M658.095 608.741C657.889 608.741 657.683 608.731 657.476 608.712L633.059 606.934C632.072 606.842 631.119 606.525 630.273 606.007C629.428 605.489 628.713 604.783 628.183 603.945C627.653 603.106 627.323 602.158 627.218 601.172C627.113 600.186 627.236 599.189 627.578 598.257L660.254 524.846C660.488 524.191 660.583 523.496 660.534 522.803C660.486 522.109 660.294 521.434 659.972 520.818C659.65 520.196 659.2 519.648 658.652 519.211C658.103 518.775 657.469 518.46 656.79 518.286C641.424 514.27 602.001 503.575 567.874 491.062C553.253 485.701 544.044 477.954 540.504 468.035C535.837 454.959 542.741 443.033 543.038 442.533L543.269 442.141L575.382 445.06L610.195 448.021L686.486 488.929C692.878 492.386 697.734 498.124 700.086 505C702.438 511.876 702.113 519.386 699.176 526.033L664.004 604.903C663.495 606.045 662.666 607.016 661.617 607.697C660.569 608.378 659.345 608.741 658.095 608.741Z" fill="#2F2E41"/>
<path d="M601.94 315.544L564.524 302.593C564.524 302.593 541.035 320.638 552.319 365.405C558.21 388.506 556.494 412.89 547.426 434.939C546.334 437.667 545.075 440.325 543.657 442.898C543.657 442.898 585.391 493.264 624.246 455.85L609.135 383.179C609.135 383.179 632.88 334.971 601.94 315.544Z" fill="#FFD029"/>
<path d="M595.428 296.705C590.397 289.175 586.427 278.735 591.966 271.571C597.433 264.499 608.216 265.541 616.589 262.412C628.251 258.053 635.015 244.353 632.906 232.083C630.796 219.814 620.947 209.642 609.213 205.481C597.479 201.319 584.247 202.672 572.756 207.465C558.611 213.365 546.477 224.777 541.389 239.233C536.3 253.69 539.02 271.048 549.576 282.159C560.893 294.072 578.653 297.247 595.084 297.054" fill="#2F2E41"/>
<path d="M562.549 232.477C556.21 237.637 546.539 235.345 539.734 230.817C532.93 226.288 527.408 219.839 520.046 216.289C507.067 210.029 491.374 214.19 478.742 221.124C466.11 228.058 454.912 237.637 441.569 243.078C428.225 248.519 411.198 248.788 401.095 238.514C398.608 245.717 398.405 253.513 400.513 260.836C402.62 268.159 406.936 274.654 412.871 279.434C418.807 284.214 426.072 287.047 433.677 287.545C441.281 288.043 448.854 286.184 455.363 282.219C469.983 273.314 478.059 254.642 494.457 249.727C503.531 247.007 513.275 249.198 522.446 251.57C531.617 253.943 541.179 256.507 550.435 254.487C559.69 252.467 568.347 244.15 567.169 234.751L562.549 232.477Z" fill="#2F2E41"/>
<path d="M762.769 383.298C761.839 381.238 760.469 379.407 758.755 377.934C757.041 376.461 755.024 375.382 752.848 374.773C750.671 374.164 748.388 374.039 746.158 374.407C743.928 374.776 741.806 375.629 739.942 376.906L602.553 346.072L600.845 379.647L736.431 399.399C738.785 402.389 742.153 404.411 745.898 405.084C749.644 405.756 753.505 405.031 756.752 403.046C759.999 401.062 762.404 397.955 763.513 394.315C764.622 390.676 764.358 386.755 762.769 383.298V383.298Z" fill="#FFB8B8"/>
<path d="M626.642 349.156L618.256 383.146C618.018 384.113 617.573 385.017 616.954 385.797C616.334 386.577 615.554 387.214 614.666 387.665C613.777 388.116 612.803 388.371 611.807 388.411C610.812 388.452 609.82 388.277 608.898 387.899L576.601 374.664C571.657 373.418 567.409 370.261 564.79 365.887C562.171 361.513 561.394 356.278 562.629 351.332C563.865 346.385 567.013 342.131 571.382 339.502C575.75 336.874 580.984 336.086 585.933 337.311L620.568 340.596C621.56 340.69 622.52 340.997 623.382 341.496C624.244 341.994 624.989 342.673 625.565 343.485C626.142 344.298 626.536 345.225 626.722 346.203C626.908 347.182 626.88 348.189 626.642 349.156V349.156Z" fill="#FF9F46"/>
<path d="M746.898 409.974C752.462 409.974 756.972 405.464 756.972 399.901C756.972 394.338 752.462 389.828 746.898 389.828C741.335 389.828 736.825 394.338 736.825 399.901C736.825 405.464 741.335 409.974 746.898 409.974Z" fill="#0087DA"/>
</g>
<defs>
<clipPath id="clip0">
<rect width="1193" height="525" fill="white" transform="translate(0 203)"/>
</clipPath>
</defs>
</svg>
