<svg width="1210" height="839" viewBox="0 0 1210 839" fill="none" xmlns="http://www.w3.org/2000/svg">
<rect x="146" y="128" width="998" height="437" rx="54" fill="#1E1C31"/>
<rect x="236" y="300" width="839" height="437" rx="125" fill="#9FCAFF"/>
<path d="M282.571 825H1039.16C1044.9 810.441 1050.25 777.453 1025.69 761.973C994.999 742.622 930.38 811.178 896.993 726.589C863.606 642 775.832 729.354 781.217 702.263C786.602 675.172 760.215 636.472 701.519 628.178C642.824 619.885 640.131 681.807 628.284 655.822C616.437 629.837 584.666 628.179 583.051 602.194C581.435 576.209 489.891 481.115 406.424 513.735C339.651 539.83 348.447 636.656 361.191 681.807C357.601 669.459 339.759 656.264 297.11 702.263C254.461 748.262 269.647 803.254 282.571 825Z" fill="#3ABB76"/>
<ellipse cx="686" cy="827.5" rx="504" ry="11.5" fill="#9FCAFF"/>
<rect x="795" y="167" width="186" height="97" rx="48.5" fill="#9FCAFF"/>
<rect x="293" y="39" width="421" height="177" rx="88.5" fill="#9FCAFF"/>
<path d="M440.962 732.269C436.861 764.402 421.779 793.802 405.69 822.122C405.158 823.086 404.611 824.036 404.05 825H236.828C233.446 824.122 230.108 823.158 226.783 822.122C207.896 816.372 190.065 807.6 173.984 796.147C112.463 751.825 88.7896 668.074 99.4822 593.028C106.131 546.404 126.594 498.801 166.443 473.689C187.482 460.407 214.508 456.09 238.728 461.026C239.361 461.141 239.995 461.285 240.642 461.415C261.48 466.106 280.044 477.762 290.607 496.541C309.603 530.287 298.292 572.09 288.952 609.649C279.641 647.208 274.59 692.163 301.616 719.864C292.693 693.602 301.501 662.274 322.814 644.517C338.917 631.119 361.338 626.097 381.787 630.256C383.744 630.673 385.673 631.148 387.572 631.724C392.163 633.068 396.59 634.922 400.769 637.25C432.644 655.05 445.553 696.048 440.962 732.269Z" fill="#F2F2F2"/>
<path d="M671.043 605.806H532.918L531.454 563.339C531.391 561.498 531.727 559.665 532.44 557.967C533.153 556.268 534.225 554.745 535.583 553.5C536.941 552.256 538.553 551.321 540.307 550.759C542.062 550.197 543.917 550.022 545.745 550.246L626.125 560.088H626.134C638.051 560.12 649.469 564.874 657.886 573.309C666.304 581.743 671.035 593.17 671.043 605.086V605.806Z" fill="#0087DA"/>
<path d="M609.48 455.169H513.145C511.864 455.169 510.595 455.421 509.411 455.911C508.228 456.401 507.152 457.12 506.246 458.026C505.34 458.932 504.622 460.007 504.132 461.191C503.641 462.374 503.389 463.643 503.39 464.924V561.256C503.389 562.537 503.641 563.806 504.132 564.99C504.622 566.173 505.34 567.249 506.246 568.155C507.152 569.061 508.228 569.779 509.411 570.269C510.595 570.759 511.864 571.011 513.145 571.011H609.48C610.762 571.011 612.03 570.759 613.214 570.269C614.398 569.779 615.473 569.061 616.379 568.155C617.285 567.249 618.004 566.173 618.494 564.99C618.984 563.806 619.236 562.537 619.236 561.256V464.924C619.236 463.643 618.984 462.374 618.494 461.191C618.004 460.007 617.285 458.932 616.379 458.026C615.473 457.12 614.398 456.401 613.214 455.911C612.03 455.421 610.762 455.169 609.48 455.169V455.169Z" fill="#CCCCCC"/>
<path d="M587.784 527.202L542.3 536.06C539.602 536.582 536.807 536.012 534.528 534.477C532.25 532.941 530.673 530.564 530.145 527.867L526.649 509.913C526.126 507.216 526.696 504.421 528.231 502.142C529.767 499.863 532.145 498.287 534.841 497.759L580.325 488.901C583.023 488.379 585.818 488.948 588.097 490.484C590.376 492.02 591.952 494.397 592.481 497.094L595.977 515.048C596.499 517.745 595.93 520.54 594.394 522.819C592.858 525.098 590.481 526.674 587.784 527.202Z" fill="#3F3D56"/>
<path d="M578.684 505.992L543.973 512.751C543.338 512.875 542.68 512.741 542.143 512.38C541.607 512.018 541.236 511.459 541.113 510.824C540.989 510.189 541.123 509.531 541.484 508.995C541.846 508.458 542.406 508.087 543.04 507.964L577.752 501.204C578.387 501.081 579.045 501.214 579.581 501.576C580.118 501.937 580.488 502.497 580.612 503.132C580.736 503.767 580.602 504.425 580.241 504.961C579.879 505.498 579.319 505.868 578.684 505.992V505.992Z" fill="white"/>
<path d="M850.57 481.737C849.901 479.579 848.767 477.593 847.247 475.92C845.728 474.246 843.86 472.927 841.776 472.054C839.691 471.18 837.441 470.775 835.182 470.865C832.924 470.956 830.713 471.541 828.705 472.578L696.171 425.029L690.333 458.137L822.446 494.466C824.413 497.723 827.506 500.146 831.14 501.275C834.773 502.405 838.695 502.162 842.162 500.593C845.628 499.024 848.399 496.238 849.948 492.763C851.498 489.288 851.719 485.365 850.57 481.737V481.737Z" fill="#FFB8B8"/>
<path d="M571.937 516.002L553.983 519.498C553.348 519.622 552.69 519.488 552.154 519.127C551.617 518.765 551.247 518.205 551.123 517.57C550.999 516.936 551.133 516.278 551.495 515.741C551.856 515.205 552.416 514.834 553.051 514.71L571.005 511.214C571.319 511.153 571.643 511.154 571.957 511.218C572.27 511.282 572.569 511.407 572.834 511.586C573.1 511.765 573.328 511.994 573.504 512.261C573.681 512.528 573.804 512.828 573.865 513.142C573.926 513.456 573.925 513.78 573.861 514.093C573.798 514.407 573.673 514.706 573.494 514.971C573.315 515.237 573.085 515.464 572.818 515.641C572.551 515.818 572.252 515.941 571.937 516.002Z" fill="white"/>
<path opacity="0.2" d="M850.57 481.737C849.901 479.579 848.767 477.593 847.247 475.92C845.728 474.246 843.86 472.927 841.776 472.054C839.691 471.18 837.441 470.775 835.182 470.865C832.924 470.956 830.713 471.541 828.705 472.578L696.171 425.029L690.333 458.137L822.446 494.466C824.413 497.723 827.506 500.146 831.14 501.275C834.773 502.405 838.695 502.162 842.162 500.593C845.628 499.024 848.399 496.238 849.948 492.763C851.498 489.288 851.719 485.365 850.57 481.737V481.737Z" fill="black"/>
<path d="M719.695 431.062L707.179 463.757C706.823 464.687 706.271 465.53 705.56 466.227C704.849 466.925 703.996 467.461 703.059 467.799C702.122 468.137 701.123 468.269 700.13 468.187C699.137 468.104 698.174 467.808 697.306 467.32L666.889 450.201C662.14 448.351 658.318 444.695 656.261 440.032C654.204 435.37 654.08 430.082 655.916 425.328C657.752 420.574 661.398 416.742 666.054 414.672C670.711 412.601 675.999 412.462 680.758 414.284L714.724 421.817C715.696 422.033 716.611 422.456 717.405 423.057C718.199 423.659 718.854 424.424 719.326 425.301C719.798 426.179 720.075 427.147 720.139 428.141C720.202 429.135 720.051 430.131 719.695 431.062V431.062Z" fill="#FF9F46"/>
<path d="M861.002 512.011L813.512 533.596L819.747 557.068C831.787 602.394 834.983 649.616 829.158 696.15V696.15L863.88 703.402L892.662 630.011L882.588 546.548L861.002 512.011Z" fill="#004A78"/>
<path d="M954.183 620.658C922.98 620.658 897.552 643.34 896.318 671.743H1012.05C1010.81 643.34 985.385 620.658 954.183 620.658Z" fill="#1E1C31"/>
<path d="M929.893 625.553C928.269 497.337 855.245 509.133 855.245 509.133C855.245 509.133 856.611 549.042 857.268 550.283C903.801 638.322 827.003 741.536 729.247 722.548C727.404 722.19 725.633 721.827 723.935 721.458C711.548 718.872 700.612 711.665 693.351 701.303C686.089 690.941 683.047 678.202 684.845 665.677C694.474 588.35 646.578 589.719 646.578 589.719H576.543L540.173 556.987C538.889 555.831 537.342 555.008 535.666 554.589C533.991 554.17 532.238 554.167 530.561 554.582C528.885 554.997 527.335 555.816 526.048 556.968C524.761 558.12 523.776 559.569 523.179 561.19L518.5 573.889C518.5 573.889 449.424 581.084 455.18 648.719H476.536C476.485 650.641 476.562 652.564 476.767 654.475L636.146 653.179C645.489 653.103 653.735 660.673 653.774 670.015C653.783 672.29 653.334 674.543 652.453 676.64C651.571 678.736 650.276 680.634 648.645 682.219C647.013 683.803 645.079 685.043 642.957 685.863C640.835 686.682 638.57 687.066 636.297 686.99L610.601 686.134C602.687 721.39 622.114 745.134 643.521 760.064C663.675 773.917 687.59 781.262 712.046 781.11H781.852C872.515 781.11 888.344 704.841 888.344 704.841C935.834 684.695 929.893 625.553 929.893 625.553Z" fill="#3A5AFF"/>
<path d="M949.865 822.841C994.572 822.841 1030.81 786.601 1030.81 741.896C1030.81 697.191 994.572 660.951 949.865 660.951C905.159 660.951 868.917 697.191 868.917 741.896C868.917 786.601 905.159 822.841 949.865 822.841Z" fill="#1E1C31"/>
<path d="M541.166 822.841C592.628 822.841 634.346 781.125 634.346 729.664C634.346 678.204 592.628 636.487 541.166 636.487C489.703 636.487 447.985 678.204 447.985 729.664C447.985 781.125 489.703 822.841 541.166 822.841Z" fill="#1E1C31"/>
<path d="M813.647 539.974L796.56 493.566C795.67 491.148 795.264 488.577 795.367 486.002C795.47 483.427 796.079 480.897 797.16 478.557C798.241 476.217 799.772 474.113 801.665 472.365C803.559 470.616 805.779 469.258 808.198 468.368L857.184 450.335C861.44 448.768 865.963 448.054 870.494 448.235C875.026 448.416 879.478 449.487 883.595 451.388C887.713 453.29 891.415 455.983 894.492 459.315C897.568 462.647 899.958 466.552 901.525 470.808C902.938 474.628 903.66 478.669 903.656 482.741C903.638 487.913 902.468 493.015 900.23 497.677C897.993 502.339 894.745 506.445 890.722 509.694C887.816 512.025 884.55 513.867 881.051 515.147L813.647 539.974Z" fill="#1E1C31"/>
<path d="M902.937 482.741C902.933 487.807 901.793 492.807 899.602 497.375C897.41 501.942 894.222 505.96 890.273 509.133C884.213 507.535 878.575 504.636 873.749 500.639C868.923 496.641 865.026 491.641 862.328 485.985C859.63 480.329 858.196 474.153 858.126 467.887C858.056 461.621 859.352 455.415 861.923 449.701C866.859 448.627 871.973 448.673 876.889 449.835C881.805 450.996 886.398 453.244 890.332 456.413C894.266 459.582 897.44 463.591 899.621 468.147C901.802 472.703 902.935 477.69 902.937 482.741V482.741Z" fill="#2EAFFF"/>
<path d="M467.413 658.072C478.54 658.072 487.56 647.12 487.56 633.609C487.56 620.098 478.54 609.145 467.413 609.145C456.286 609.145 447.265 620.098 447.265 633.609C447.265 647.12 456.286 658.072 467.413 658.072Z" fill="#0087DA"/>
<path d="M733.731 720.204H751.374L759.768 674.447L733.728 674.449L733.731 720.204Z" fill="#FFB8B8"/>
<path d="M754.21 701.424C754.004 701.424 753.798 701.414 753.591 701.394L729.174 699.617C728.187 699.525 727.234 699.208 726.388 698.69C725.543 698.171 724.828 697.466 724.298 696.628C723.768 695.789 723.438 694.841 723.333 693.855C723.228 692.868 723.351 691.871 723.693 690.94L756.369 617.529C756.603 616.874 756.698 616.179 756.649 615.485C756.601 614.792 756.409 614.117 756.087 613.501C755.765 612.878 755.315 612.331 754.767 611.894C754.218 611.458 753.584 611.142 752.905 610.969C737.539 606.953 698.116 596.258 663.989 583.745C649.368 578.384 640.159 570.637 636.619 560.718C631.952 547.642 638.857 535.716 639.153 535.216L639.384 534.824L671.497 537.743L706.31 540.704L782.601 581.612C788.993 585.069 793.849 590.807 796.201 597.683C798.553 604.559 798.228 612.069 795.291 618.716L760.119 697.586C759.61 698.728 758.781 699.699 757.733 700.38C756.684 701.061 755.46 701.424 754.21 701.424Z" fill="#2F2E41"/>
<path d="M677.081 392.503C696.601 392.503 712.426 376.679 712.426 357.159C712.426 337.639 696.601 321.815 677.081 321.815C657.56 321.815 641.735 337.639 641.735 357.159C641.735 376.679 657.56 392.503 677.081 392.503Z" fill="#FFB8B8"/>
<path d="M723.658 724.521H741.301L749.695 678.764L723.655 678.766L723.658 724.521Z" fill="#FFB8B8"/>
<path d="M744.136 705.741C743.931 705.741 743.724 705.731 743.517 705.712L719.101 703.934C718.113 703.842 717.16 703.525 716.315 703.007C715.469 702.489 714.754 701.783 714.225 700.945C713.695 700.106 713.365 699.158 713.26 698.172C713.155 697.186 713.278 696.189 713.619 695.257L746.296 621.846C746.529 621.191 746.624 620.496 746.576 619.803C746.527 619.109 746.336 618.434 746.013 617.818C745.691 617.196 745.242 616.648 744.693 616.211C744.145 615.775 743.51 615.46 742.831 615.286C727.466 611.27 688.042 600.575 653.915 588.062C639.294 582.701 630.086 574.954 626.546 565.035C621.878 551.959 628.783 540.033 629.079 539.533L629.311 539.141L661.423 542.06L696.237 545.021L772.527 585.929C778.92 589.386 783.776 595.124 786.127 602C788.479 608.876 788.154 616.386 785.218 623.033L750.045 701.903C749.537 703.045 748.708 704.016 747.659 704.697C746.61 705.378 745.387 705.741 744.136 705.741Z" fill="#2F2E41"/>
<path d="M687.981 412.544L650.565 399.593C650.565 399.593 627.077 417.638 638.36 462.405C644.251 485.506 642.535 509.89 633.467 531.939C632.376 534.667 631.117 537.325 629.699 539.898C629.699 539.898 671.432 590.264 710.287 552.85L695.177 480.179C695.177 480.179 718.922 431.971 687.981 412.544Z" fill="#FFC700"/>
<path d="M681.469 393.705C676.439 386.175 672.468 375.735 678.007 368.571C683.474 361.499 694.257 362.541 702.631 359.412C714.293 355.053 721.057 341.353 718.947 329.083C716.838 316.814 706.988 306.642 695.254 302.481C683.52 298.319 670.288 299.672 658.798 304.465C644.652 310.365 632.518 321.777 627.43 336.233C622.342 350.69 625.062 368.048 635.618 379.159C646.934 391.072 664.695 394.247 681.125 394.054" fill="#1E1C31"/>
<path d="M648.59 329.477C642.251 334.637 632.58 332.345 625.776 327.817C618.971 323.288 613.45 316.839 606.088 313.289C593.108 307.029 577.416 311.19 564.784 318.124C552.151 325.058 540.954 334.637 527.61 340.078C514.267 345.519 497.24 345.788 487.136 335.514C484.65 342.717 484.447 350.513 486.554 357.836C488.662 365.159 492.978 371.654 498.913 376.434C504.848 381.214 512.114 384.047 519.718 384.545C527.323 385.044 534.896 383.184 541.404 379.219C556.024 370.314 564.1 351.642 580.498 346.727C589.572 344.007 599.316 346.198 608.487 348.571C617.658 350.943 627.221 353.507 636.476 351.487C645.731 349.467 654.388 341.15 653.211 331.751L648.59 329.477Z" fill="#1E1C31"/>
<path d="M848.811 480.298C847.881 478.238 846.51 476.407 844.796 474.934C843.082 473.461 841.066 472.382 838.889 471.773C836.713 471.164 834.429 471.039 832.2 471.407C829.97 471.776 827.848 472.629 825.983 473.906L688.594 443.072L686.887 476.647L822.473 496.399C824.826 499.389 828.195 501.411 831.94 502.084C835.685 502.756 839.547 502.031 842.794 500.046C846.04 498.062 848.446 494.955 849.555 491.315C850.664 487.676 850.399 483.755 848.811 480.298V480.298Z" fill="#FFB8B8"/>
<path d="M712.683 446.156L704.298 480.146C704.059 481.113 703.615 482.017 702.995 482.797C702.376 483.577 701.595 484.214 700.707 484.665C699.819 485.116 698.844 485.371 697.849 485.411C696.853 485.452 695.861 485.277 694.939 484.899L662.643 471.664C657.699 470.418 653.451 467.261 650.832 462.887C648.212 458.513 647.435 453.278 648.671 448.332C649.907 443.385 653.054 439.131 657.423 436.502C661.792 433.874 667.025 433.086 671.974 434.311L706.61 437.596C707.601 437.69 708.561 437.997 709.423 438.496C710.286 438.994 711.03 439.673 711.607 440.485C712.183 441.298 712.578 442.225 712.763 443.203C712.949 444.182 712.922 445.189 712.683 446.156V446.156Z" fill="#FF7A00"/>
<path d="M832.94 506.974C838.503 506.974 843.013 502.464 843.013 496.901C843.013 491.338 838.503 486.828 832.94 486.828C827.376 486.828 822.866 491.338 822.866 496.901C822.866 502.464 827.376 506.974 832.94 506.974Z" fill="#0087DA"/>
<path d="M729.231 714.444L763.975 714.443H763.977C766.885 714.443 769.764 715.016 772.45 716.128C775.137 717.241 777.578 718.872 779.634 720.928C781.69 722.984 783.321 725.425 784.434 728.111C785.547 730.797 786.119 733.676 786.119 736.584V737.304L729.232 737.306L729.231 714.444Z" fill="#2F2E41"/>
<path d="M719.157 718.761L753.902 718.76H753.903C756.811 718.76 759.69 719.332 762.377 720.445C765.063 721.558 767.504 723.189 769.56 725.245C771.617 727.301 773.248 729.741 774.36 732.428C775.473 735.114 776.046 737.993 776.046 740.901V741.621L719.158 741.623L719.157 718.761Z" fill="#2F2E41"/>
<path d="M619.236 464.924V477.728H503.39V464.924C503.389 463.643 503.641 462.374 504.132 461.191C504.622 460.007 505.34 458.932 506.246 458.026C507.152 457.12 508.228 456.401 509.411 455.911C510.595 455.421 511.864 455.169 513.145 455.169H609.48C610.762 455.169 612.03 455.421 613.214 455.911C614.398 456.401 615.473 457.12 616.379 458.026C617.285 458.932 618.004 460.007 618.494 461.191C618.984 462.374 619.236 463.643 619.236 464.924Z" fill="#B3B3B3"/>
<mask id="mask0" mask-type="alpha" maskUnits="userSpaceOnUse" x="447" y="300" width="584" height="523">
<path d="M671.043 605.806H532.918L531.454 563.339C531.391 561.498 531.727 559.665 532.44 557.967C533.153 556.268 534.225 554.745 535.583 553.5C536.941 552.256 538.553 551.321 540.307 550.759C542.062 550.197 543.917 550.022 545.745 550.246L626.125 560.088H626.134C638.051 560.12 649.469 564.874 657.886 573.309C666.304 581.743 671.035 593.17 671.043 605.086V605.806Z" fill="#0087DA"/>
<path d="M609.48 455.169H513.145C511.864 455.169 510.595 455.421 509.411 455.911C508.228 456.401 507.152 457.12 506.246 458.026C505.34 458.932 504.622 460.007 504.132 461.191C503.641 462.374 503.389 463.643 503.39 464.924V561.256C503.389 562.537 503.641 563.806 504.132 564.99C504.622 566.173 505.34 567.249 506.246 568.155C507.152 569.061 508.228 569.779 509.411 570.269C510.595 570.759 511.864 571.011 513.145 571.011H609.48C610.762 571.011 612.03 570.759 613.214 570.269C614.398 569.779 615.473 569.061 616.379 568.155C617.285 567.249 618.004 566.173 618.494 564.99C618.984 563.806 619.236 562.537 619.236 561.256V464.924C619.236 463.643 618.984 462.374 618.494 461.191C618.004 460.007 617.285 458.932 616.379 458.026C615.473 457.12 614.398 456.401 613.214 455.911C612.03 455.421 610.762 455.169 609.48 455.169V455.169Z" fill="#CCCCCC"/>
<path d="M587.784 527.202L542.3 536.06C539.602 536.582 536.807 536.012 534.528 534.477C532.25 532.941 530.673 530.564 530.145 527.867L526.649 509.913C526.126 507.216 526.696 504.421 528.231 502.142C529.767 499.863 532.145 498.287 534.841 497.759L580.325 488.901C583.023 488.379 585.818 488.948 588.097 490.484C590.376 492.02 591.952 494.397 592.481 497.094L595.977 515.048C596.499 517.745 595.93 520.54 594.394 522.819C592.858 525.098 590.481 526.674 587.784 527.202Z" fill="#3F3D56"/>
<path d="M578.684 505.992L543.973 512.751C543.338 512.875 542.68 512.741 542.143 512.38C541.607 512.018 541.236 511.459 541.113 510.824C540.989 510.189 541.123 509.531 541.484 508.995C541.846 508.458 542.406 508.087 543.04 507.964L577.752 501.204C578.387 501.081 579.045 501.214 579.581 501.576C580.118 501.937 580.488 502.497 580.612 503.132C580.736 503.767 580.602 504.425 580.241 504.961C579.879 505.498 579.319 505.868 578.684 505.992V505.992Z" fill="white"/>
<path d="M850.57 481.737C849.901 479.579 848.767 477.593 847.247 475.92C845.728 474.246 843.86 472.927 841.776 472.054C839.691 471.18 837.441 470.775 835.182 470.865C832.924 470.956 830.713 471.541 828.705 472.578L696.171 425.029L690.333 458.137L822.446 494.466C824.413 497.723 827.506 500.146 831.14 501.275C834.773 502.405 838.695 502.162 842.162 500.593C845.628 499.024 848.399 496.238 849.948 492.763C851.498 489.288 851.719 485.365 850.57 481.737V481.737Z" fill="#FFB8B8"/>
<path d="M571.937 516.002L553.983 519.498C553.348 519.622 552.69 519.488 552.154 519.127C551.617 518.765 551.247 518.205 551.123 517.57C550.999 516.936 551.133 516.278 551.495 515.741C551.856 515.205 552.416 514.834 553.051 514.71L571.005 511.214C571.319 511.153 571.643 511.154 571.957 511.218C572.27 511.282 572.569 511.407 572.834 511.586C573.1 511.765 573.328 511.994 573.504 512.261C573.681 512.528 573.804 512.828 573.865 513.142C573.926 513.456 573.925 513.78 573.861 514.093C573.798 514.407 573.673 514.706 573.494 514.971C573.315 515.237 573.085 515.464 572.818 515.641C572.551 515.818 572.252 515.941 571.937 516.002Z" fill="white"/>
<path opacity="0.2" d="M850.57 481.737C849.901 479.579 848.767 477.593 847.247 475.92C845.728 474.246 843.86 472.927 841.776 472.054C839.691 471.18 837.441 470.775 835.182 470.865C832.924 470.956 830.713 471.541 828.705 472.578L696.171 425.029L690.333 458.137L822.446 494.466C824.413 497.723 827.506 500.146 831.14 501.275C834.773 502.405 838.695 502.162 842.162 500.593C845.628 499.024 848.399 496.238 849.948 492.763C851.498 489.288 851.719 485.365 850.57 481.737V481.737Z" fill="black"/>
<path d="M719.695 431.062L707.179 463.757C706.823 464.687 706.271 465.53 705.56 466.227C704.849 466.925 703.996 467.461 703.059 467.799C702.122 468.137 701.123 468.269 700.13 468.187C699.137 468.104 698.174 467.808 697.306 467.32L666.889 450.201C662.14 448.351 658.318 444.695 656.261 440.032C654.204 435.37 654.08 430.082 655.916 425.328C657.752 420.574 661.398 416.742 666.054 414.672C670.711 412.601 675.999 412.462 680.758 414.284L714.724 421.817C715.696 422.033 716.611 422.456 717.405 423.057C718.199 423.659 718.854 424.424 719.326 425.301C719.798 426.179 720.075 427.147 720.139 428.141C720.202 429.135 720.051 430.131 719.695 431.062V431.062Z" fill="#FF9F46"/>
<path d="M861.002 512.011L813.512 533.596L819.747 557.068C831.787 602.394 834.983 649.616 829.158 696.15V696.15L863.88 703.402L892.662 630.011L882.588 546.548L861.002 512.011Z" fill="#009EFF"/>
<path d="M954.183 620.658C922.98 620.658 897.552 643.34 896.318 671.743H1012.05C1010.81 643.34 985.385 620.658 954.183 620.658Z" fill="#1E1C31"/>
<path d="M929.893 625.553C928.269 497.337 855.245 509.133 855.245 509.133C855.245 509.133 856.611 549.042 857.268 550.283C903.801 638.322 827.003 741.536 729.247 722.548C727.404 722.19 725.633 721.827 723.935 721.458C711.548 718.872 700.612 711.665 693.351 701.303C686.089 690.941 683.047 678.202 684.845 665.677C694.474 588.35 646.578 589.719 646.578 589.719H576.543L540.173 556.987C538.889 555.831 537.342 555.008 535.666 554.589C533.991 554.17 532.238 554.167 530.561 554.582C528.885 554.997 527.335 555.816 526.048 556.968C524.761 558.12 523.776 559.569 523.179 561.19L518.5 573.889C518.5 573.889 449.424 581.084 455.18 648.719H476.536C476.485 650.641 476.562 652.564 476.767 654.475L636.146 653.179C645.489 653.103 653.735 660.673 653.774 670.015C653.783 672.29 653.334 674.543 652.453 676.64C651.571 678.736 650.276 680.634 648.645 682.219C647.013 683.803 645.079 685.043 642.957 685.863C640.835 686.682 638.57 687.066 636.297 686.99L610.601 686.134C602.687 721.39 622.114 745.134 643.521 760.064C663.675 773.917 687.59 781.262 712.046 781.11H781.852C872.515 781.11 888.344 704.841 888.344 704.841C935.834 684.695 929.893 625.553 929.893 625.553Z" fill="#3A5AFF"/>
<path d="M949.865 822.841C994.572 822.841 1030.81 786.601 1030.81 741.896C1030.81 697.191 994.572 660.951 949.865 660.951C905.159 660.951 868.917 697.191 868.917 741.896C868.917 786.601 905.159 822.841 949.865 822.841Z" fill="#1E1C31"/>
<path d="M541.166 822.841C592.628 822.841 634.346 781.125 634.346 729.664C634.346 678.204 592.628 636.487 541.166 636.487C489.703 636.487 447.985 678.204 447.985 729.664C447.985 781.125 489.703 822.841 541.166 822.841Z" fill="#1E1C31"/>
<path d="M813.647 539.974L796.56 493.566C795.67 491.148 795.264 488.577 795.367 486.002C795.47 483.427 796.079 480.897 797.16 478.557C798.241 476.217 799.772 474.113 801.665 472.365C803.559 470.616 805.779 469.258 808.198 468.368L857.184 450.335C861.44 448.768 865.963 448.054 870.494 448.235C875.026 448.416 879.478 449.487 883.595 451.388C887.713 453.29 891.415 455.983 894.492 459.315C897.568 462.647 899.958 466.552 901.525 470.808C902.938 474.628 903.66 478.669 903.656 482.741C903.638 487.913 902.468 493.015 900.23 497.677C897.993 502.339 894.745 506.445 890.722 509.694C887.816 512.025 884.55 513.867 881.051 515.147L813.647 539.974Z" fill="#1E1C31"/>
<path d="M902.937 482.741C902.933 487.807 901.793 492.807 899.602 497.375C897.41 501.942 894.222 505.96 890.273 509.133C884.213 507.535 878.575 504.636 873.749 500.639C868.923 496.641 865.026 491.641 862.328 485.985C859.63 480.329 858.196 474.153 858.126 467.887C858.056 461.621 859.352 455.415 861.923 449.701C866.859 448.627 871.973 448.673 876.889 449.835C881.805 450.996 886.398 453.244 890.332 456.413C894.266 459.582 897.44 463.591 899.621 468.147C901.802 472.703 902.935 477.69 902.937 482.741V482.741Z" fill="#2EAFFF"/>
<path d="M467.413 658.072C478.54 658.072 487.56 647.12 487.56 633.609C487.56 620.098 478.54 609.145 467.413 609.145C456.286 609.145 447.265 620.098 447.265 633.609C447.265 647.12 456.286 658.072 467.413 658.072Z" fill="#0087DA"/>
<path d="M733.731 720.204H751.374L759.768 674.447L733.728 674.449L733.731 720.204Z" fill="#FFB8B8"/>
<path d="M754.21 701.424C754.004 701.424 753.798 701.414 753.591 701.394L729.174 699.617C728.187 699.525 727.234 699.208 726.388 698.69C725.543 698.171 724.828 697.466 724.298 696.628C723.768 695.789 723.438 694.841 723.333 693.855C723.228 692.868 723.351 691.871 723.693 690.94L756.369 617.529C756.603 616.874 756.698 616.179 756.649 615.485C756.601 614.792 756.409 614.117 756.087 613.501C755.765 612.878 755.315 612.331 754.767 611.894C754.218 611.458 753.584 611.142 752.905 610.969C737.539 606.953 698.116 596.258 663.989 583.745C649.368 578.384 640.159 570.637 636.619 560.718C631.952 547.642 638.857 535.716 639.153 535.216L639.384 534.824L671.497 537.743L706.31 540.704L782.601 581.612C788.993 585.069 793.849 590.807 796.201 597.683C798.553 604.559 798.228 612.069 795.291 618.716L760.119 697.586C759.61 698.728 758.781 699.699 757.733 700.38C756.684 701.061 755.46 701.424 754.21 701.424Z" fill="#2F2E41"/>
<path d="M677.081 392.503C696.601 392.503 712.426 376.679 712.426 357.159C712.426 337.639 696.601 321.815 677.081 321.815C657.56 321.815 641.735 337.639 641.735 357.159C641.735 376.679 657.56 392.503 677.081 392.503Z" fill="#FFB8B8"/>
<path d="M723.658 724.521H741.301L749.695 678.764L723.655 678.766L723.658 724.521Z" fill="#FFB8B8"/>
<path d="M744.136 705.741C743.931 705.741 743.724 705.731 743.517 705.712L719.101 703.934C718.113 703.842 717.16 703.525 716.315 703.007C715.469 702.489 714.754 701.783 714.225 700.945C713.695 700.106 713.365 699.158 713.26 698.172C713.155 697.186 713.278 696.189 713.619 695.257L746.296 621.846C746.529 621.191 746.624 620.496 746.576 619.803C746.527 619.109 746.336 618.434 746.013 617.818C745.691 617.196 745.242 616.648 744.693 616.211C744.145 615.775 743.51 615.46 742.831 615.286C727.466 611.27 688.042 600.575 653.915 588.062C639.294 582.701 630.086 574.954 626.546 565.035C621.878 551.959 628.783 540.033 629.079 539.533L629.311 539.141L661.423 542.06L696.237 545.021L772.527 585.929C778.92 589.386 783.776 595.124 786.127 602C788.479 608.876 788.154 616.386 785.218 623.033L750.045 701.903C749.537 703.045 748.708 704.016 747.659 704.697C746.61 705.378 745.387 705.741 744.136 705.741Z" fill="#2F2E41"/>
<path d="M687.981 412.544L650.565 399.593C650.565 399.593 627.077 417.638 638.36 462.405C644.251 485.506 642.535 509.89 633.467 531.939C632.376 534.667 631.117 537.325 629.699 539.898C629.699 539.898 671.432 590.264 710.287 552.85L695.177 480.179C695.177 480.179 718.922 431.971 687.981 412.544Z" fill="#FFD029"/>
<path d="M681.469 393.705C676.439 386.175 672.468 375.735 678.007 368.571C683.474 361.499 694.257 362.541 702.631 359.412C714.293 355.053 721.057 341.353 718.947 329.083C716.838 316.814 706.988 306.642 695.254 302.481C683.52 298.319 670.288 299.672 658.798 304.465C644.652 310.365 632.518 321.777 627.43 336.233C622.342 350.69 625.062 368.048 635.618 379.159C646.934 391.072 664.695 394.247 681.125 394.054" fill="#2F2E41"/>
<path d="M648.59 329.477C642.251 334.637 632.58 332.345 625.776 327.817C618.971 323.288 613.45 316.839 606.088 313.289C593.108 307.029 577.416 311.19 564.784 318.124C552.151 325.058 540.954 334.637 527.61 340.078C514.267 345.519 497.24 345.788 487.136 335.514C484.65 342.717 484.447 350.513 486.554 357.836C488.662 365.159 492.978 371.654 498.913 376.434C504.848 381.214 512.114 384.047 519.718 384.545C527.323 385.044 534.896 383.184 541.404 379.219C556.024 370.314 564.1 351.642 580.498 346.727C589.572 344.007 599.316 346.198 608.487 348.571C617.658 350.943 627.221 353.507 636.476 351.487C645.731 349.467 654.388 341.15 653.211 331.751L648.59 329.477Z" fill="#2F2E41"/>
<path d="M848.811 480.298C847.881 478.238 846.51 476.407 844.796 474.934C843.082 473.461 841.066 472.382 838.889 471.773C836.713 471.164 834.429 471.039 832.2 471.407C829.97 471.776 827.848 472.629 825.983 473.906L688.594 443.072L686.887 476.647L822.473 496.399C824.826 499.389 828.195 501.411 831.94 502.084C835.685 502.756 839.547 502.031 842.794 500.046C846.04 498.062 848.446 494.955 849.555 491.315C850.664 487.676 850.399 483.755 848.811 480.298V480.298Z" fill="#FFB8B8"/>
<path d="M712.683 446.156L704.298 480.146C704.059 481.113 703.615 482.017 702.995 482.797C702.376 483.577 701.595 484.214 700.707 484.665C699.819 485.116 698.844 485.371 697.849 485.411C696.853 485.452 695.861 485.277 694.939 484.899L662.643 471.664C657.699 470.418 653.451 467.261 650.832 462.887C648.212 458.513 647.435 453.278 648.671 448.332C649.907 443.385 653.054 439.131 657.423 436.502C661.792 433.874 667.025 433.086 671.974 434.311L706.61 437.596C707.601 437.69 708.561 437.997 709.423 438.496C710.286 438.994 711.03 439.673 711.607 440.485C712.183 441.298 712.578 442.225 712.763 443.203C712.949 444.182 712.922 445.189 712.683 446.156V446.156Z" fill="#FF9F46"/>
<path d="M832.94 506.974C838.503 506.974 843.013 502.464 843.013 496.901C843.013 491.338 838.503 486.828 832.94 486.828C827.376 486.828 822.866 491.338 822.866 496.901C822.866 502.464 827.376 506.974 832.94 506.974Z" fill="#0087DA"/>
<path d="M729.231 714.444L763.975 714.443H763.977C766.885 714.443 769.764 715.016 772.45 716.128C775.137 717.241 777.578 718.872 779.634 720.928C781.69 722.984 783.321 725.425 784.434 728.111C785.547 730.797 786.119 733.676 786.119 736.584V737.304L729.232 737.306L729.231 714.444Z" fill="#2F2E41"/>
<path d="M719.157 718.761L753.902 718.76H753.903C756.811 718.76 759.69 719.332 762.377 720.445C765.063 721.558 767.504 723.189 769.56 725.245C771.617 727.301 773.248 729.741 774.36 732.428C775.473 735.114 776.046 737.993 776.046 740.901V741.621L719.158 741.623L719.157 718.761Z" fill="#2F2E41"/>
<path d="M619.236 464.924V477.728H503.39V464.924C503.389 463.643 503.641 462.374 504.132 461.191C504.622 460.007 505.34 458.932 506.246 458.026C507.152 457.12 508.228 456.401 509.411 455.911C510.595 455.421 511.864 455.169 513.145 455.169H609.48C610.762 455.169 612.03 455.421 613.214 455.911C614.398 456.401 615.473 457.12 616.379 458.026C617.285 458.932 618.004 460.007 618.494 461.191C618.984 462.374 619.236 463.643 619.236 464.924Z" fill="#B3B3B3"/>
</mask>
<g mask="url(#mask0)">
<path opacity="0.3" d="M871 724C773.5 812 659.5 752 633.5 717C635 727.5 634.5 740 632 751C632 766 694 805.5 746 809C798 812.5 853.5 778.5 870 756C868.5 744 868.5 735 871 724Z" fill="#001595"/>
<g style="mix-blend-mode:overlay" opacity="0.15">
<circle cx="547" cy="749" r="80" fill="black"/>
</g>
<g style="mix-blend-mode:overlay" opacity="0.15">
<circle cx="958" cy="762" r="71" fill="black"/>
</g>
<g style="mix-blend-mode:overlay" opacity="0.15">
<ellipse cx="955.5" cy="753" rx="48.5" ry="46" fill="black"/>
</g>
<g style="mix-blend-mode:overlay" opacity="0.15">
<ellipse cx="543.5" cy="730" rx="48.5" ry="46" fill="black"/>
</g>
<path opacity="0.3" d="M648.825 413.379C646.425 408.979 649.825 402.879 651.825 400.379C663.992 401.879 690.225 403.979 697.825 400.379C707.325 395.879 712.825 390.379 723.325 380.379C733.825 370.379 824.325 344.379 842.325 355.879C860.325 367.379 882.325 378.379 901.325 419.379C920.325 460.379 908.325 453.379 901.325 473.879C894.325 494.379 857.325 497.379 853.825 491.879C851.025 487.479 840.992 481.379 836.325 478.879H809.825C796.325 478.879 785.825 474.379 779.825 473.879C773.825 473.379 715.325 459.379 697.825 456.879C680.325 454.379 681.325 454.879 675.325 453.379C669.325 451.879 670.325 451.879 665.325 448.379C660.325 444.879 658.825 439.379 656.325 431.879C653.825 424.379 651.825 418.879 648.825 413.379Z" fill="white"/>
<path opacity="0.2" d="M638.549 599C632.549 590 622.549 558 625.549 546C625.417 549 630.031 558 649.549 570C673.946 585 767.549 599 787.049 606.5C806.549 614 790.049 633 778.049 694C766.049 755 786.549 720 793.049 734.5C799.549 749 791.549 743.5 770 745C748.451 746.5 725 749 695 739.5C665 730 671.049 682.5 671.549 649.5C672.049 616.5 644.549 608 638.549 599Z" fill="black"/>
<path d="M543 354C517 377 488.5 350 487.5 333.5C519.333 309 590.4 258.3 620 251.5C657 243 652.5 255.5 708 281C763.5 306.5 725.5 308.5 718.5 333.5C711.5 358.5 686.5 347 660 347C633.5 347 633.5 333.5 629.5 333.5C625.5 333.5 614 320 599 315.5C584 311 569 331 543 354Z" fill="#28244A"/>
<path d="M682.5 338C652.5 340 650 311 658 301C660.333 301 667.4 299.5 677 293.5C689 286 720 299.5 718.5 316C717 332.5 712.5 336 682.5 338Z" fill="#312B69"/>
<path opacity="0.3" d="M487 571.5C531.667 537.333 620 464.8 616 448L581.5 417.5C556.333 418.833 502.2 423.9 487 433.5C471.8 443.1 480.667 529.5 487 571.5Z" fill="white"/>
</g>
<path d="M341.81 822.122C346.443 823.201 351.091 824.151 355.768 825H330.484C327.174 824.108 323.878 823.158 320.612 822.122C313.431 819.877 306.36 817.301 299.4 814.394C271.482 802.681 245.765 785.096 226.309 761.697C216.793 750.361 209.023 737.668 203.255 724.038C197 708.632 193.024 692.397 191.454 675.845C187.928 641.883 191.526 606.987 198.247 573.63C205.182 539.058 216.377 505.478 231.576 473.661C233.404 469.847 235.294 466.058 237.246 462.292C237.38 461.982 237.583 461.707 237.84 461.488C238.097 461.268 238.401 461.11 238.728 461.026C239.392 460.897 240.08 461.037 240.642 461.415C241.316 461.801 241.816 462.432 242.038 463.176C242.26 463.921 242.188 464.722 241.836 465.415C226.166 495.974 214.287 528.333 206.464 561.773C198.808 594.395 194.462 628.529 195.944 662.073C197.354 693.415 205.543 724.239 224.121 749.868C241.088 773.267 264.516 791.715 290.434 804.278C306.839 812.126 324.072 818.112 341.81 822.122V822.122Z" fill="white"/>
<path d="M397.301 825H389.846C389.011 824.05 388.205 823.086 387.414 822.122C370.434 801.492 358.932 776.913 353.97 750.66C347.943 717.896 352.631 684.063 367.339 654.173C371.442 645.791 376.277 637.788 381.787 630.256C383.744 630.673 385.673 631.148 387.572 631.724C373.078 650.926 363.33 673.283 359.121 696.969C355.367 719.165 356.615 741.919 362.775 763.57C368.934 785.222 379.85 805.226 394.725 822.122C395.559 823.086 396.423 824.05 397.301 825Z" fill="white"/>
<path d="M1068.83 800.526C1069.92 809.007 1073.9 816.766 1078.14 824.24C1078.28 824.495 1078.43 824.745 1078.58 825H1122.71C1123.6 824.768 1124.48 824.514 1125.36 824.24C1130.34 822.723 1135.05 820.408 1139.29 817.385C1155.53 805.688 1161.78 783.584 1158.96 763.778C1157.2 751.473 1151.8 738.91 1141.28 732.283C1135.57 728.805 1128.76 727.611 1122.21 728.941C1122.04 728.971 1121.87 729.009 1121.7 729.043C1118.97 729.57 1116.39 730.669 1114.12 732.267C1111.84 733.865 1109.93 735.925 1108.52 738.314C1103.5 747.22 1106.49 758.252 1108.95 768.165C1111.41 778.077 1112.74 789.942 1105.61 797.253C1106.66 794.195 1106.87 790.915 1106.22 787.748C1105.58 784.581 1104.11 781.643 1101.95 779.235C1099.8 776.827 1097.04 775.036 1093.97 774.046C1090.89 773.056 1087.61 772.903 1084.45 773.603C1083.93 773.714 1083.43 773.839 1082.92 773.991C1081.71 774.346 1080.54 774.835 1079.44 775.449C1071.03 780.147 1067.62 790.967 1068.83 800.526Z" fill="#F2F2F2"/>
<path d="M1095 824.24C1093.78 824.525 1092.55 824.776 1091.32 825H1097.99C1098.86 824.764 1099.73 824.514 1100.6 824.24C1102.49 823.648 1104.36 822.968 1106.19 822.201C1113.65 819.176 1120.26 814.406 1125.48 808.293C1128 805.301 1130.05 801.951 1131.57 798.354C1133.22 794.288 1134.27 790.004 1134.68 785.635C1135.44 776.604 1134.84 767.51 1132.89 758.659C1131.06 749.535 1128.11 740.672 1124.09 732.275C1123.61 731.269 1123.11 730.269 1122.6 729.275C1122.56 729.193 1122.51 729.12 1122.44 729.062C1122.37 729.004 1122.29 728.963 1122.21 728.941C1122.03 728.907 1121.85 728.943 1121.7 729.043C1121.52 729.145 1121.39 729.312 1121.33 729.508C1121.27 729.705 1121.29 729.916 1121.39 730.099C1125.52 738.164 1128.66 746.704 1130.72 755.529C1132.85 764.186 1133.78 773.092 1133.5 782.001C1133.35 790.286 1130.76 798.345 1126.06 805.171C1121.49 811.319 1115.48 816.251 1108.56 819.531C1104.23 821.602 1099.68 823.182 1095 824.24Z" fill="white"/>
<path d="M1080.36 825H1082.32C1082.54 824.749 1082.76 824.495 1082.97 824.24C1087.45 818.796 1090.48 812.309 1091.79 805.38C1093.38 796.733 1092.15 787.804 1088.26 779.916C1087.18 777.703 1085.91 775.591 1084.45 773.604C1083.93 773.714 1083.43 773.839 1082.92 773.991C1086.75 779.059 1089.32 784.959 1090.43 791.21C1091.42 797.068 1091.09 803.073 1089.47 808.788C1087.84 814.502 1084.96 819.781 1081.04 824.24C1080.82 824.495 1080.59 824.749 1080.36 825Z" fill="white"/>
<path d="M949.865 761.736C960.823 761.736 969.706 752.853 969.706 741.896C969.706 730.939 960.823 722.056 949.865 722.056C938.908 722.056 930.025 730.939 930.025 741.896C930.025 752.853 938.908 761.736 949.865 761.736Z" fill="white"/>
<path d="M541.166 752.502C553.779 752.502 564.004 742.277 564.004 729.664C564.004 717.051 553.779 706.827 541.166 706.827C528.552 706.827 518.327 717.051 518.327 729.664C518.327 742.277 528.552 752.502 541.166 752.502Z" fill="white"/>
<rect x="923" y="54" width="63" height="20" rx="10" fill="#FF7A00"/>
<rect y="343" width="59" height="27" rx="13.5" fill="#FFB800"/>
<rect x="1105" y="304" width="105" height="43" rx="21.5" fill="#FFB800"/>
<rect x="219" y="27" width="17" height="12" rx="6" fill="#FF7A00"/>
<rect x="858" width="17" height="12" rx="6" fill="#FF7A00"/>
</svg>
