<svg width="1572" height="1171" viewBox="0 0 1572 1171" fill="none" xmlns="http://www.w3.org/2000/svg">
<rect width="1572" height="1171" fill="white"/>
<ellipse cx="817.5" cy="1121.5" rx="663.5" ry="11.5" fill="#9FCAFF"/>
<rect x="187" y="225" width="905" height="719" rx="175" fill="#1E1C31"/>
<rect x="260" y="422" width="1108" height="697" rx="115" fill="#9FCAFF"/>
<path d="M1363 1089C1393.38 1089 1418 1066.17 1418 1038C1418 1009.83 1393.38 987 1363 987C1332.62 987 1308 1009.83 1308 1038C1308 1066.17 1332.62 1089 1363 1089Z" fill="#1E1C31"/>
<path d="M1085.71 1121.64C1115.31 944.085 1086.01 767.171 1085.71 765.406L1079.96 766.381C1080.25 768.137 1109.39 944.122 1079.95 1120.68L1085.71 1121.64Z" fill="#0087DA"/>
<path d="M1358.25 1122C1380.08 1061.69 1358.47 1001.6 1358.25 1001L1354 1001.33C1354.22 1001.93 1375.71 1061.7 1354 1121.67L1358.25 1122Z" fill="#0087DA"/>
<rect x="387" y="280" width="304" height="84" rx="42" fill="#9FCAFF"/>
<rect x="760" y="147" width="426" height="156" rx="78" fill="#9FCAFF"/>
<rect x="1280" y="148" width="63" height="20" rx="10" fill="#FF6B00"/>
<rect x="36" y="471" width="63" height="20" rx="10" fill="#FF6B00"/>
<rect x="289" y="113" width="59" height="27" rx="13.5" fill="#957DE7"/>
<rect x="769" y="105" width="17" height="12" rx="6" fill="#957DE7"/>
<rect x="1509" y="689" width="17" height="12" rx="6" fill="#957DE7"/>
<rect x="94" y="1026" width="17" height="12" rx="6" fill="#957DE7"/>
<rect x="1354" y="246" width="105" height="43" rx="21.5" fill="#FF6B00"/>
<path d="M1027.47 842.444L1024.72 847.594L1091.55 883.333L1094.3 878.183L1027.47 842.444Z" fill="#0087DA"/>
<path d="M1162.08 860.347L1095.26 896.106L1098.01 901.255L1164.84 865.496L1162.08 860.347Z" fill="#0087DA"/>
<path d="M1092.54 1025.63C1133.36 1025.63 1166.45 958.129 1166.45 874.864C1166.45 791.598 1133.36 724.099 1092.54 724.099C1051.72 724.099 1018.63 791.598 1018.63 874.864C1018.63 958.129 1051.72 1025.63 1092.54 1025.63Z" fill="#1E1C31"/>
<path d="M1270.11 931.135C1349.95 931.135 1414.67 799.113 1414.67 636.257C1414.67 473.4 1349.95 341.378 1270.11 341.378C1190.28 341.378 1125.56 473.4 1125.56 636.257C1125.56 799.113 1190.28 931.135 1270.11 931.135Z" fill="#1E1C31"/>
<path d="M1254.01 1118.47C1311.83 771.646 1254.6 426.089 1254.01 422.639L1248.25 423.614C1248.84 427.055 1305.9 771.684 1248.25 1117.51L1254.01 1118.47Z" fill="#0087DA"/>
<path d="M1141.53 575.308L1138.78 580.457L1269.49 650.36L1272.25 645.211L1141.53 575.308Z" fill="#0087DA"/>
<path d="M1407.45 610.325L1276.75 680.265L1279.51 685.413L1410.2 615.474L1407.45 610.325Z" fill="#0087DA"/>
<path d="M979.337 1119H210.663C207.836 1119 205.126 1117.87 203.127 1115.87C201.128 1113.87 200.003 1111.16 200 1108.34V622.663C200.003 619.836 201.128 617.125 203.127 615.127C205.126 613.128 207.836 612.003 210.663 612H979.337C982.164 612.003 984.874 613.128 986.873 615.127C988.872 617.126 989.997 619.836 990 622.663V1108.34C989.997 1111.16 988.872 1113.87 986.873 1115.87C984.874 1117.87 982.164 1119 979.337 1119Z" fill="#00598F"/>
<path d="M934.337 1119H165.663C162.836 1119 160.126 1117.87 158.127 1115.87C156.128 1113.87 155.003 1111.16 155 1108.34V622.663C155.003 619.836 156.128 617.125 158.127 615.127C160.126 613.128 162.836 612.003 165.663 612H934.337C937.164 612.003 939.874 613.128 941.873 615.127C943.872 617.126 944.997 619.836 945 622.663V1108.34C944.997 1111.16 943.872 1113.87 941.873 1115.87C939.874 1117.87 937.164 1119 934.337 1119Z" fill="#009EFF"/>
<path d="M236.221 671.194C235.009 671.195 233.847 671.677 232.99 672.534C232.133 673.39 231.651 674.552 231.65 675.764V1055.96C231.651 1057.18 232.133 1058.34 232.99 1059.19C233.847 1060.05 235.009 1060.53 236.221 1060.53H863.684C864.896 1060.53 866.058 1060.05 866.915 1059.19C867.772 1058.34 868.254 1057.18 868.255 1055.96V675.764C868.254 674.552 867.772 673.39 866.915 672.534C866.058 671.677 864.896 671.195 863.684 671.194H236.221Z" fill="white"/>
<path d="M236.221 671.194C235.009 671.195 233.847 671.677 232.99 672.534C232.133 673.39 231.651 674.552 231.65 675.764V1055.96C231.651 1057.18 232.133 1058.34 232.99 1059.19C233.847 1060.05 235.009 1060.53 236.221 1060.53H863.684C864.896 1060.53 866.058 1060.05 866.915 1059.19C867.772 1058.34 868.254 1057.18 868.255 1055.96V675.764C868.254 674.552 867.772 673.39 866.915 672.534C866.058 671.677 864.896 671.195 863.684 671.194H236.221Z" fill="white"/>
<path d="M869.779 745.026H222.864V769.119H869.779V745.026Z" fill="#009EFF"/>
<path d="M869.779 862.812H222.864V886.904H869.779V862.812Z" fill="#009EFF"/>
<path d="M589.6 798.565H319.168V822.658H589.6V798.565Z" fill="#009EFF"/>
<path d="M869.779 987.29H222.864V1011.38H869.779V987.29Z" fill="#009EFF"/>
<path d="M331.217 669.67H307.119V1002.01H331.217V669.67Z" fill="#009EFF"/>
<path d="M781.045 669.67H756.947V876.197H781.045V669.67Z" fill="#009EFF"/>
<path d="M598.971 669.67H574.874V1062.06H598.971V669.67Z" fill="#009EFF"/>
<path d="M461.078 866.827H436.98V1062.06H461.078V866.827Z" fill="#009EFF"/>
<path opacity="0.3" d="M819.5 612H724.5L474.673 526L434.5 610L613.538 912C638.634 874.451 701.095 784.435 750.172 724.757C807.279 687.91 819.686 638.367 819.5 612Z" fill="#007AC6"/>
<path d="M586.923 908.69C603.928 908.69 617.714 894.907 617.714 877.905C617.714 860.903 603.928 847.12 586.923 847.12C569.917 847.12 556.131 860.903 556.131 877.905C556.131 894.907 569.917 908.69 586.923 908.69Z" fill="#FF6B00"/>
<path d="M590.614 695.027C695.517 695.027 780.558 610.006 780.558 505.126C780.558 400.246 695.517 315.224 590.614 315.224C485.71 315.224 400.669 400.246 400.669 505.126C400.669 610.006 485.71 695.027 590.614 695.027Z" fill="#FF6B00"/>
<path d="M592.471 813.83L532.462 711.344L472.454 608.858L591.234 608.144L710.013 607.429L651.242 710.63L592.471 813.83Z" fill="#FF6B00"/>
<mask id="mask0" mask-type="alpha" maskUnits="userSpaceOnUse" x="400" y="315" width="381" height="381">
<path d="M590.614 695.027C695.517 695.027 780.558 610.006 780.558 505.126C780.558 400.246 695.517 315.224 590.614 315.224C485.71 315.224 400.669 400.246 400.669 505.126C400.669 610.006 485.71 695.027 590.614 695.027Z" fill="#FF7A00"/>
</mask>
<g mask="url(#mask0)">
<path d="M592.5 682.5C589.7 678.5 513 460.167 475 351.5L531.5 300H710C720.4 300 768.333 343.667 791 365.5C803 437.167 827 581.9 827 587.5C827 594.5 749.5 622.5 726 622.5C702.5 622.5 705 621.5 697 622.5C689 623.5 649 618 657 657C665 696 639.5 695.5 629 702.5C618.5 709.5 596 687.5 592.5 682.5Z" fill="#DA3400"/>
</g>
<path d="M592.138 572.065C629.776 572.065 660.287 541.561 660.287 503.931C660.287 466.302 629.776 435.797 592.138 435.797C554.5 435.797 523.989 466.302 523.989 503.931C523.989 541.561 554.5 572.065 592.138 572.065Z" fill="white"/>
<path d="M586.22 48.9758C586.22 48.9758 545.576 37.5293 533.554 93.0447C521.533 148.56 530.692 176.604 530.692 176.604L621.426 166.016C621.426 166.016 647.186 65.8593 586.22 48.9758Z" fill="#1A1932"/>
<path d="M525.411 289.425C525.411 289.425 465.793 295.361 476.412 319.425C487.031 343.489 487.031 345.612 487.031 345.612L539.416 439.036L556.406 421.342C556.406 421.342 537.293 379.584 537.293 366.137C537.293 352.689 517.471 329.334 517.471 329.334L552.159 326.503L525.411 289.425Z" fill="#FFB9B9"/>
<path d="M688.787 318.009L708.608 361.183C708.608 361.183 723.475 376.045 739.757 435.497C756.039 494.949 759.578 492.825 759.578 492.825L734.801 497.78C734.801 497.78 707.193 433.374 697.99 428.42C688.787 423.465 677.46 378.169 677.46 378.169L644.896 337.119L654.807 315.178L688.787 318.009Z" fill="#FFB9B9"/>
<path d="M664.718 268.466L695.158 325.087C695.158 325.087 656.931 307.393 651.267 346.32L616.579 319.425C616.579 319.425 568.441 334.996 539.417 329.334C539.417 329.334 547.912 302.439 517.471 290.407L586.139 281.914L583.307 267.051L590.387 252.896L664.718 268.466Z" fill="#1A1932"/>
<path d="M545.975 425.407C545.975 425.407 527.155 421.033 530.715 438.366L537.835 473.03C537.835 473.03 522.319 506.561 542.707 500.411C563.095 494.261 579.703 447.326 579.703 447.326C579.703 447.326 591.158 411.334 582.691 410.645C574.224 409.955 547.872 402.128 550.234 408.001C552.597 413.874 545.975 425.407 545.975 425.407Z" fill="#1A1932"/>
<path d="M757.455 482.917C757.455 482.917 732.678 476.547 727.014 486.456C721.351 496.364 722.767 528.921 722.767 529.629C722.767 530.337 731.262 537.414 734.093 537.414C736.925 537.414 754.623 569.263 778.692 557.939C802.761 546.615 757.455 482.917 757.455 482.917Z" fill="#1A1932"/>
<path d="M606.311 112.224C608.754 97.1767 598.532 82.9987 583.481 80.5568C568.43 78.1149 554.249 88.3339 551.807 103.382C549.364 118.429 559.586 132.607 574.637 135.049C589.688 137.491 603.869 127.272 606.311 112.224Z" fill="#FFB9B9"/>
<path d="M601.713 113.468C601.713 113.468 607.376 143.193 612.332 147.44C617.287 151.686 574.812 158.056 574.812 158.056C574.812 158.056 581.184 137.531 573.397 126.915C565.609 116.298 601.713 113.468 601.713 113.468Z" fill="#FFB9B9"/>
<path d="M676.044 281.914C671.223 281.914 658.948 279.918 645.186 277.349C633.279 275.126 620.246 272.486 609.967 270.349C598.959 268.056 591.095 266.343 591.095 266.343C591.095 266.343 588.263 284.037 579.06 281.914C571.131 280.088 547.437 197.344 541.031 174.476C540.563 172.807 540.653 171.03 541.288 169.416C541.923 167.802 543.068 166.44 544.549 165.537L577.092 145.67L585.431 148.855C585.431 148.855 599.519 137.97 607.695 137.751C615.871 137.531 630.03 135.408 630.03 135.408C630.03 135.408 646.312 136.823 649.144 148.855C651.975 160.887 653.391 235.909 664.01 249.357C674.629 262.804 689.495 281.914 676.044 281.914Z" fill="#7360DD"/>
<path d="M576.936 321.548C576.936 321.548 576.936 349.151 595.342 344.904C613.747 340.658 596.758 315.178 596.758 315.178L576.936 321.548Z" fill="#FFB9B9"/>
<path d="M627.906 324.379C627.906 324.379 621.535 356.936 608.084 351.982C594.634 347.027 608.084 318.009 608.084 318.009L627.906 324.379Z" fill="#FFB9B9"/>
<path opacity="0.15" d="M657.638 247.234C657.638 247.234 650.708 263.767 645.186 277.349C633.279 275.126 620.246 272.486 609.967 270.349C610.706 268.394 611.742 266.566 613.04 264.928C617.995 259.266 615.163 257.85 615.163 257.85C610.916 249.357 614.456 238.033 614.456 238.033C605.961 215.385 618.703 187.074 618.703 187.074L657.638 247.234Z" fill="black"/>
<path d="M620.827 187.074C620.827 187.074 608.084 215.385 616.579 238.033C616.579 238.033 613.04 249.357 617.287 257.85C617.287 257.85 620.119 259.266 615.163 264.928C610.208 270.59 605.96 290.407 609.5 294.653C613.04 298.9 604.545 306.685 606.668 310.932C608.792 315.178 603.129 320.84 603.129 320.84C603.129 320.84 624.366 325.087 627.906 331.457C627.906 331.457 632.153 326.502 630.03 320.84C627.906 315.178 629.322 313.055 631.446 309.516C633.569 305.978 639.94 298.192 640.648 294.653C641.356 291.115 659.762 247.234 659.762 247.234L651.13 167.267L620.827 187.074Z" fill="#7360DD"/>
<path d="M547.204 167.257L545.881 167.497C544.037 167.832 542.37 168.806 541.174 170.249C539.978 171.692 539.33 173.51 539.344 175.384C539.394 182.49 539.795 195.101 541.54 212.554C544.372 240.864 554.283 283.329 556.406 287.576C559.779 295.09 563.56 302.415 567.733 309.516C574.104 320.133 575.52 316.594 574.104 321.548C573.674 322.913 573.645 324.373 574.021 325.753C574.398 327.134 575.164 328.377 576.228 329.334C576.228 329.334 588.971 315.178 601.713 322.964C602.624 320.962 603.106 318.793 603.129 316.594C603.129 313.055 605.253 309.516 601.713 307.393C598.174 305.27 603.837 296.069 598.173 291.115C592.51 286.16 591.802 286.868 592.51 281.914C592.841 278.545 592.355 275.147 591.094 272.005L547.204 167.257Z" fill="#7360DD"/>
<path d="M605.961 104.621C608.111 104.621 609.854 101.293 609.854 97.1891C609.854 93.0849 608.111 89.7577 605.961 89.7577C603.81 89.7577 602.067 93.0849 602.067 97.1891C602.067 101.293 603.81 104.621 605.961 104.621Z" fill="#FFB9B9"/>
<path d="M589.381 72.3483C589.381 72.3483 577.932 102.681 549.882 115.273L545.303 88.3733L589.381 72.3483Z" fill="#1A1932"/>
<mask id="mask1" mask-type="alpha" maskUnits="userSpaceOnUse" x="1018" y="341" width="397" height="685">
<path d="M1092.54 1025.63C1133.36 1025.63 1166.45 958.129 1166.45 874.864C1166.45 791.598 1133.36 724.099 1092.54 724.099C1051.72 724.099 1018.63 791.598 1018.63 874.864C1018.63 958.129 1051.72 1025.63 1092.54 1025.63Z" fill="#1E1C31"/>
<path d="M1270.11 931.135C1349.95 931.135 1414.67 799.113 1414.67 636.257C1414.67 473.4 1349.95 341.378 1270.11 341.378C1190.28 341.378 1125.56 473.4 1125.56 636.257C1125.56 799.113 1190.28 931.135 1270.11 931.135Z" fill="#1E1C31"/>
</mask>
<g mask="url(#mask1)">
<path d="M1251.5 407C1253 393.5 1331 331 1341 326C1318.33 290.333 1265.4 218 1235 214C1197 209 1157.5 283.5 1113 367.5C1068.5 451.5 1035.5 522.5 1014 587C992.5 651.5 1005.5 674.5 994 745.5C982.5 816.5 986 836.5 994 894C1002 951.5 1042 1041 1052 1082.5C1062 1124 1086.5 1099 1095 1041C1103.5 983 1095 836.5 1072 729C1053.6 643 1079.67 624.833 1095 626.5L1169 851C1174.5 903.833 1187.2 1005.9 1194 991.5C1200.8 977.1 1249.5 952.5 1273 942C1273.67 920 1274.6 844 1273 716C1271 556 1250 420.5 1251.5 407Z" fill="#342F61"/>
</g>
<mask id="mask2" mask-type="alpha" maskUnits="userSpaceOnUse" x="475" y="48" width="311" height="513">
<path d="M586.22 48.9758C586.22 48.9758 545.576 37.5293 533.554 93.0447C521.533 148.56 530.692 176.604 530.692 176.604L621.426 166.016C621.426 166.016 647.186 65.8593 586.22 48.9758Z" fill="#2F2E41"/>
<path d="M525.411 289.425C525.411 289.425 465.793 295.361 476.412 319.425C487.031 343.489 487.031 345.612 487.031 345.612L539.416 439.036L556.406 421.342C556.406 421.342 537.293 379.584 537.293 366.137C537.293 352.689 517.471 329.334 517.471 329.334L552.159 326.503L525.411 289.425Z" fill="#FFB9B9"/>
<path d="M688.787 318.009L708.608 361.183C708.608 361.183 723.475 376.045 739.757 435.497C756.039 494.949 759.578 492.825 759.578 492.825L734.801 497.78C734.801 497.78 707.193 433.374 697.99 428.42C688.787 423.465 677.46 378.169 677.46 378.169L644.896 337.119L654.807 315.178L688.787 318.009Z" fill="#FFB9B9"/>
<path d="M664.718 268.466L695.158 325.087C695.158 325.087 656.931 307.393 651.267 346.32L616.579 319.425C616.579 319.425 568.441 334.996 539.417 329.334C539.417 329.334 547.912 302.439 517.471 290.407L586.139 281.914L583.307 267.051L590.387 252.896L664.718 268.466Z" fill="black"/>
<path d="M543.664 426.296C543.664 426.296 524.55 423.465 529.506 440.451L539.417 474.424C539.417 474.424 526.674 509.104 546.496 501.318C566.318 493.533 579.06 445.406 579.06 445.406C579.06 445.406 587.555 408.602 579.06 408.602C570.565 408.602 543.664 402.94 546.496 408.602C549.328 414.264 543.664 426.296 543.664 426.296Z" fill="black"/>
<path d="M757.455 482.917C757.455 482.917 732.678 476.547 727.014 486.456C721.351 496.364 722.767 528.921 722.767 529.629C722.767 530.337 731.262 537.414 734.093 537.414C736.925 537.414 754.623 569.263 778.692 557.939C802.761 546.615 757.455 482.917 757.455 482.917Z" fill="black"/>
<path d="M606.311 112.224C608.754 97.1767 598.532 82.9987 583.481 80.5568C568.43 78.1149 554.249 88.3339 551.807 103.382C549.364 118.429 559.586 132.607 574.637 135.049C589.688 137.491 603.869 127.272 606.311 112.224Z" fill="#FFB9B9"/>
<path d="M601.713 113.468C601.713 113.468 607.376 143.193 612.332 147.44C617.287 151.686 574.812 158.056 574.812 158.056C574.812 158.056 581.184 137.531 573.397 126.915C565.609 116.298 601.713 113.468 601.713 113.468Z" fill="#FFB9B9"/>
<path d="M676.044 281.914C671.223 281.914 658.948 279.918 645.186 277.349C633.279 275.126 620.246 272.486 609.967 270.349C598.959 268.056 591.095 266.343 591.095 266.343C591.095 266.343 588.263 284.037 579.06 281.914C571.131 280.088 547.437 197.344 541.031 174.476C540.563 172.807 540.653 171.03 541.288 169.416C541.923 167.802 543.068 166.44 544.549 165.537L577.092 145.67L585.431 148.855C585.431 148.855 599.519 137.97 607.695 137.751C615.871 137.531 630.03 135.408 630.03 135.408C630.03 135.408 646.312 136.823 649.144 148.855C651.975 160.887 653.391 235.909 664.01 249.357C674.629 262.804 689.495 281.914 676.044 281.914Z" fill="#7360DD"/>
<path d="M576.936 321.548C576.936 321.548 576.936 349.151 595.342 344.904C613.747 340.658 596.758 315.178 596.758 315.178L576.936 321.548Z" fill="#FFB9B9"/>
<path d="M627.906 324.379C627.906 324.379 621.535 356.936 608.084 351.982C594.634 347.027 608.084 318.009 608.084 318.009L627.906 324.379Z" fill="#FFB9B9"/>
<path opacity="0.15" d="M657.638 247.234C657.638 247.234 650.708 263.767 645.186 277.349C633.279 275.126 620.246 272.486 609.967 270.349C610.706 268.394 611.742 266.566 613.04 264.928C617.995 259.266 615.163 257.85 615.163 257.85C610.916 249.357 614.456 238.033 614.456 238.033C605.961 215.385 618.703 187.074 618.703 187.074L657.638 247.234Z" fill="black"/>
<path d="M620.827 187.074C620.827 187.074 608.084 215.385 616.579 238.033C616.579 238.033 613.04 249.357 617.287 257.85C617.287 257.85 620.119 259.266 615.163 264.928C610.208 270.59 605.96 290.407 609.5 294.653C613.04 298.9 604.545 306.685 606.668 310.932C608.792 315.178 603.129 320.84 603.129 320.84C603.129 320.84 624.366 325.087 627.906 331.457C627.906 331.457 632.153 326.502 630.03 320.84C627.906 315.178 629.322 313.055 631.446 309.516C633.569 305.978 639.94 298.192 640.648 294.653C641.356 291.115 659.762 247.234 659.762 247.234L651.13 167.267L620.827 187.074Z" fill="#7360DD"/>
<path d="M547.204 167.257L545.881 167.497C544.037 167.832 542.37 168.806 541.174 170.249C539.978 171.692 539.33 173.51 539.344 175.384C539.394 182.49 539.795 195.101 541.54 212.554C544.372 240.864 554.283 283.329 556.406 287.576C559.779 295.09 563.56 302.415 567.733 309.516C574.104 320.133 575.52 316.594 574.104 321.548C573.674 322.913 573.645 324.373 574.021 325.753C574.398 327.134 575.164 328.377 576.228 329.334C576.228 329.334 588.971 315.178 601.713 322.964C602.624 320.962 603.106 318.793 603.129 316.594C603.129 313.055 605.253 309.516 601.713 307.393C598.174 305.27 603.837 296.069 598.173 291.115C592.51 286.16 591.802 286.868 592.51 281.914C592.841 278.545 592.355 275.147 591.094 272.005L547.204 167.257Z" fill="#7360DD"/>
<path d="M605.961 104.621C608.111 104.621 609.854 101.293 609.854 97.1891C609.854 93.0849 608.111 89.7577 605.961 89.7577C603.81 89.7577 602.067 93.0849 602.067 97.1891C602.067 101.293 603.81 104.621 605.961 104.621Z" fill="#FFB9B9"/>
<path d="M589.381 72.3483C589.381 72.3483 577.932 102.681 549.882 115.273L545.303 88.3733L589.381 72.3483Z" fill="#2F2E41"/>
</mask>
<g mask="url(#mask2)">
<path opacity="0.15" d="M569 241.5C575 225 568.5 221.5 559 213.5C549.837 205.784 543.93 199.463 539.484 187.807C536.49 200.371 530.7 226.6 531.5 231C532.3 235.4 543.5 267.833 549 283.5L562.5 293.5L577.5 303.5C578.5 301.167 579.1 293.9 573.5 283.5C566.5 270.5 569 278 569 270C569 262 563 258 569 241.5Z" fill="white"/>
<path opacity="0.3" d="M550 301V288.5C540.833 277.667 519.4 255.5 507 253.5C491.5 251 487.5 256 472.5 264C457.5 272 464.5 274 459.5 293.5C454.5 313 467.5 314.5 481.5 338C495.5 361.5 489.5 357 502.5 372.5C515.5 388 496 338.5 492.5 331C489 323.5 485.5 314 492.5 309C499.5 304 515 309 522.5 309C530 309 528 309.5 538.5 309C549 308.5 550 306 550 301Z" fill="white"/>
<path opacity="0.15" d="M643 170.5C643.5 157 641.5 152 632 137C669.5 145.5 752.7 173.2 785.5 216C826.5 269.5 827.5 342.5 830.5 415C832.9 473 801.5 522.833 785.5 540.5C782.333 541.167 773.6 542.1 764 540.5C752 538.5 752 533 744.5 521.5C737 510 737.5 496 737.5 491C737.5 487 742.167 481 744.5 478.5H752C748.167 473.667 739.9 462.6 737.5 457C734.5 450 718.5 412 715.5 407.5C712.5 403 689 362 687.5 358C686 354 665.5 313 661 309C657.4 305.8 656.167 288.333 656 280H665.5C664.833 277 663 271 661 271C659 271 653.167 256.667 650.5 249.5V271C650.5 276.5 637.5 287 632 296C626.5 305 623.5 298 625.5 287C627.5 276 632 260.5 637.5 242C643 223.5 642.5 184 643 170.5Z" fill="white"/>
</g>
<ellipse cx="585.008" cy="103.096" rx="3" ry="4.5" transform="rotate(-14.1296 585.008 103.096)" fill="black"/>
<ellipse cx="562.008" cy="116.096" rx="3" ry="4.5" transform="rotate(-14.1296 562.008 116.096)" fill="black"/>
<path d="M590.5 115C590.5 117.833 589.3 124 584.5 126" stroke="#D58F8F" stroke-width="2"/>
</svg>
