<svg width="1380" height="1074" viewBox="0 0 1380 1074" fill="none" xmlns="http://www.w3.org/2000/svg">
<path d="M0 1072C341 181 1371 1072 1371 1072L0 1072Z" fill="#0087DA" fill-opacity="0.3"/>
<path d="M1054.54 977.628C1095.36 977.628 1128.45 910.129 1128.45 826.864C1128.45 743.598 1095.36 676.099 1054.54 676.099C1013.72 676.099 980.633 743.598 980.633 826.864C980.633 910.129 1013.72 977.628 1054.54 977.628Z" fill="#3F3D56"/>
<path d="M1325 1041C1355.38 1041 1380 1018.17 1380 990C1380 961.833 1355.38 939 1325 939C1294.62 939 1270 961.833 1270 990C1270 1018.17 1294.62 1041 1325 1041Z" fill="#3F3D56"/>
<path d="M1047.71 1073.64C1077.31 896.085 1048.01 719.171 1047.71 717.406L1041.96 718.381C1042.25 720.137 1071.39 896.122 1041.95 1072.68L1047.71 1073.64Z" fill="#0087DA"/>
<path d="M1320.25 1074C1342.08 1013.69 1320.47 953.599 1320.25 953L1316 953.331C1316.22 953.928 1337.71 1013.7 1316 1073.67L1320.25 1074Z" fill="#0087DA"/>
<path d="M989.472 794.444L986.717 799.594L1053.55 835.333L1056.3 830.183L989.472 794.444Z" fill="#0087DA"/>
<path d="M1124.08 812.347L1057.26 848.106L1060.01 853.255L1126.84 817.496L1124.08 812.347Z" fill="#0087DA"/>
<path d="M1232.11 883.135C1311.95 883.135 1376.67 751.113 1376.67 588.257C1376.67 425.4 1311.95 293.378 1232.11 293.378C1152.28 293.378 1087.56 425.4 1087.56 588.257C1087.56 751.113 1152.28 883.135 1232.11 883.135Z" fill="#3F3D56"/>
<path d="M1216.01 1070.47C1273.83 723.646 1216.6 378.089 1216.01 374.639L1210.25 375.614C1210.84 379.055 1267.9 723.683 1210.25 1069.51L1216.01 1070.47Z" fill="#0087DA"/>
<path d="M1103.53 527.308L1100.78 532.457L1231.49 602.36L1234.25 597.211L1103.53 527.308Z" fill="#0087DA"/>
<path d="M1369.45 562.325L1238.75 632.265L1241.51 637.413L1372.2 567.474L1369.45 562.325Z" fill="#0087DA"/>
<path d="M896.393 1071.39H127.512C124.685 1071.39 121.974 1070.27 119.974 1068.27C117.974 1066.27 116.849 1063.56 116.846 1060.73V574.996C116.849 572.169 117.974 569.458 119.974 567.459C121.973 565.46 124.685 564.336 127.512 564.332H896.393C899.221 564.336 901.932 565.46 903.931 567.459C905.931 569.459 907.056 572.169 907.059 574.996V1060.73C907.056 1063.56 905.931 1066.27 903.931 1068.27C901.932 1070.27 899.221 1071.39 896.393 1071.39V1071.39Z" fill="#E6E6E6"/>
<path d="M198.221 623.194C197.009 623.195 195.847 623.677 194.99 624.534C194.133 625.39 193.651 626.552 193.65 627.764V1007.96C193.651 1009.18 194.133 1010.34 194.99 1011.19C195.847 1012.05 197.009 1012.53 198.221 1012.53H825.684C826.896 1012.53 828.058 1012.05 828.915 1011.19C829.772 1010.34 830.254 1009.18 830.255 1007.96V627.764C830.254 626.552 829.772 625.39 828.915 624.534C828.058 623.677 826.896 623.195 825.684 623.194H198.221Z" fill="white"/>
<path d="M831.779 697.026H184.864V721.119H831.779V697.026Z" fill="#E6E6E6"/>
<path d="M831.779 814.812H184.864V838.904H831.779V814.812Z" fill="#E6E6E6"/>
<path d="M551.6 750.565H281.168V774.658H551.6V750.565Z" fill="#E6E6E6"/>
<path d="M831.779 939.29H184.864V963.382H831.779V939.29Z" fill="#E6E6E6"/>
<path d="M293.217 621.67H269.119V954.013H293.217V621.67Z" fill="#E6E6E6"/>
<path d="M743.045 621.67H718.947V828.197H743.045V621.67Z" fill="#E6E6E6"/>
<path d="M560.971 621.67H536.874V1014.06H560.971V621.67Z" fill="#E6E6E6"/>
<path d="M423.078 818.827H398.98V1014.06H423.078V818.827Z" fill="#E6E6E6"/>
<path d="M548.923 860.69C565.928 860.69 579.714 846.907 579.714 829.905C579.714 812.903 565.928 799.12 548.923 799.12C531.917 799.12 518.131 812.903 518.131 829.905C518.131 846.907 531.917 860.69 548.923 860.69Z" fill="#FF984E"/>
<path d="M552.614 647.027C657.517 647.027 742.558 562.006 742.558 457.126C742.558 352.246 657.517 267.224 552.614 267.224C447.71 267.224 362.669 352.246 362.669 457.126C362.669 562.006 447.71 647.027 552.614 647.027Z" fill="#FF984E"/>
<path d="M554.471 765.83L494.462 663.344L434.454 560.858L553.234 560.144L672.013 559.429L613.242 662.63L554.471 765.83Z" fill="#FF984E"/>
<path d="M554.138 524.065C591.776 524.065 622.287 493.561 622.287 455.931C622.287 418.302 591.776 387.797 554.138 387.797C516.5 387.797 485.989 418.302 485.989 455.931C485.989 493.561 516.5 524.065 554.138 524.065Z" fill="white"/>
<path d="M548.22 0.975781C548.22 0.975781 507.576 -10.4707 495.554 45.0447C483.533 100.56 492.692 128.604 492.692 128.604L583.426 118.016C583.426 118.016 609.186 17.8593 548.22 0.975781Z" fill="#2F2E41"/>
<path d="M487.411 241.425C487.411 241.425 427.793 247.361 438.412 271.425C449.031 295.489 449.031 297.612 449.031 297.612L501.416 391.036L518.406 373.342C518.406 373.342 499.293 331.584 499.293 318.137C499.293 304.689 479.471 281.334 479.471 281.334L514.159 278.503L487.411 241.425Z" fill="#FFB9B9"/>
<path d="M650.787 270.009L670.608 313.183C670.608 313.183 685.475 328.045 701.757 387.497C718.039 446.949 721.578 444.825 721.578 444.825L696.801 449.78C696.801 449.78 669.193 385.374 659.99 380.42C650.787 375.465 639.46 330.169 639.46 330.169L606.896 289.119L616.807 267.178L650.787 270.009Z" fill="#FFB9B9"/>
<path d="M626.718 220.466L657.158 277.087C657.158 277.087 618.931 259.393 613.267 298.32L578.579 271.425C578.579 271.425 530.441 286.996 501.417 281.334C501.417 281.334 509.912 254.439 479.471 242.407L548.139 233.914L545.307 219.051L552.387 204.896L626.718 220.466Z" fill="#2F2E41"/>
<path d="M505.664 378.296C505.664 378.296 486.55 375.465 491.506 392.451L501.417 426.424C501.417 426.424 488.674 461.104 508.496 453.319C528.318 445.533 541.06 397.406 541.06 397.406C541.06 397.406 549.555 360.602 541.06 360.602C532.565 360.602 505.664 354.94 508.496 360.602C511.328 366.264 505.664 378.296 505.664 378.296Z" fill="#2F2E41"/>
<path d="M719.455 434.917C719.455 434.917 694.678 428.547 689.014 438.456C683.351 448.364 684.767 480.921 684.767 481.629C684.767 482.337 693.262 489.414 696.093 489.414C698.925 489.414 716.623 521.263 740.692 509.939C764.761 498.615 719.455 434.917 719.455 434.917Z" fill="#2F2E41"/>
<path d="M568.311 64.2243C570.754 49.1767 560.532 34.9987 545.481 32.5568C530.43 30.1149 516.249 40.3339 513.807 55.3816C511.364 70.4292 521.586 84.6073 536.637 87.0492C551.688 89.491 565.869 79.272 568.311 64.2243Z" fill="#FFB9B9"/>
<path d="M563.713 65.4675C563.713 65.4675 569.376 95.1933 574.332 99.4399C579.287 103.686 536.812 110.056 536.812 110.056C536.812 110.056 543.184 89.5313 535.397 78.9149C527.609 68.2985 563.713 65.4675 563.713 65.4675Z" fill="#FFB9B9"/>
<path d="M638.044 233.914C633.223 233.914 620.948 231.918 607.186 229.349C595.279 227.126 582.246 224.486 571.967 222.349C560.959 220.056 553.095 218.343 553.095 218.343C553.095 218.343 550.263 236.037 541.06 233.914C533.131 232.088 509.437 149.344 503.031 126.476C502.563 124.807 502.653 123.03 503.288 121.416C503.923 119.802 505.068 118.44 506.549 117.537L539.092 97.6704L547.431 100.855C547.431 100.855 561.519 89.97 569.695 89.7506C577.871 89.5312 592.03 87.408 592.03 87.408C592.03 87.408 608.312 88.8235 611.144 100.855C613.975 112.887 615.391 187.909 626.01 201.357C636.629 214.804 651.495 233.914 638.044 233.914Z" fill="#D0CDE1"/>
<path d="M538.936 273.548C538.936 273.548 538.936 301.151 557.342 296.904C575.747 292.658 558.758 267.178 558.758 267.178L538.936 273.548Z" fill="#FFB9B9"/>
<path d="M589.906 276.379C589.906 276.379 583.535 308.936 570.084 303.982C556.634 299.027 570.084 270.009 570.084 270.009L589.906 276.379Z" fill="#FFB9B9"/>
<path opacity="0.15" d="M619.638 199.234C619.638 199.234 612.708 215.767 607.186 229.349C595.279 227.126 582.246 224.486 571.967 222.349C572.706 220.394 573.742 218.566 575.04 216.928C579.995 211.266 577.163 209.85 577.163 209.85C572.916 201.357 576.456 190.033 576.456 190.033C567.961 167.385 580.703 139.074 580.703 139.074L619.638 199.234Z" fill="black"/>
<path d="M582.827 139.074C582.827 139.074 570.084 167.385 578.579 190.033C578.579 190.033 575.04 201.357 579.287 209.85C579.287 209.85 582.119 211.266 577.163 216.928C572.208 222.59 567.96 242.407 571.5 246.653C575.04 250.9 566.545 258.685 568.668 262.932C570.792 267.178 565.129 272.84 565.129 272.84C565.129 272.84 586.366 277.087 589.906 283.457C589.906 283.457 594.153 278.502 592.03 272.84C589.906 267.178 591.322 265.055 593.446 261.516C595.569 257.978 601.94 250.192 602.648 246.653C603.356 243.115 621.762 199.234 621.762 199.234L613.13 119.267L582.827 139.074Z" fill="#D0CDE1"/>
<path d="M509.204 119.257L507.881 119.497C506.037 119.832 504.37 120.806 503.174 122.249C501.978 123.692 501.33 125.51 501.344 127.384C501.394 134.49 501.795 147.101 503.54 164.554C506.372 192.864 516.283 235.329 518.406 239.576C521.779 247.09 525.56 254.415 529.733 261.516C536.104 272.133 537.52 268.594 536.104 273.548C535.674 274.913 535.645 276.373 536.021 277.753C536.398 279.134 537.164 280.377 538.228 281.334C538.228 281.334 550.971 267.178 563.713 274.964C564.624 272.962 565.106 270.793 565.129 268.594C565.129 265.055 567.253 261.516 563.713 259.393C560.173 257.27 565.837 248.069 560.173 243.115C554.51 238.16 553.802 238.868 554.51 233.914C554.841 230.545 554.355 227.147 553.094 224.005L509.204 119.257Z" fill="#D0CDE1"/>
<path d="M551.381 24.3483C551.381 24.3483 539.932 54.6814 511.882 67.2725L507.303 40.3733L551.381 24.3483Z" fill="#2F2E41"/>
<path d="M567.961 56.6206C570.111 56.6206 571.854 53.2934 571.854 49.1891C571.854 45.0849 570.111 41.7577 567.961 41.7577C565.81 41.7577 564.067 45.0849 564.067 49.1891C564.067 53.2934 565.81 56.6206 567.961 56.6206Z" fill="#FFB9B9"/>
</svg>
